<svg width="559" height="220" viewBox="0 0 559 220" fill="none" xmlns="http://www.w3.org/2000/svg">
<path d="M0.4 143.6L67 3.79998H124.6L56.2 143.6H0.4ZM0.4 173V143.6L16 128.3H173.2V173H0.4ZM100.3 216.5V88.4H152.8V216.5H100.3ZM280.084 219.8C262.284 219.8 246.384 215.2 232.384 206C218.384 196.6 207.284 183.6 199.084 167C191.084 150.4 187.084 131.3 187.084 109.7C187.084 88.3 191.084 69.4 199.084 53C207.084 36.4 217.984 23.5 231.784 14.3C245.784 4.89999 261.584 0.199995 279.184 0.199995C297.184 0.199995 313.184 4.89999 327.184 14.3C341.184 23.5 352.184 36.4 360.184 53C368.184 69.4 372.184 88.5 372.184 110.3C372.184 131.9 368.184 151 360.184 167.6C352.184 184 341.184 196.8 327.184 206C313.384 215.2 297.684 219.8 280.084 219.8ZM279.484 173.6C287.684 173.6 294.684 171.2 300.484 166.4C306.284 161.4 310.684 154.2 313.684 144.8C316.884 135.4 318.484 123.8 318.484 110C318.484 96.4 316.884 84.9 313.684 75.5C310.684 66.1 306.284 59 300.484 54.2C294.684 49.2 287.584 46.7 279.184 46.7C271.384 46.7 264.584 49.1 258.784 53.9C252.984 58.7 248.484 65.8 245.284 75.2C242.284 84.6 240.784 96.1 240.784 109.7C240.784 123.5 242.284 135.2 245.284 144.8C248.484 154.2 252.984 161.4 258.784 166.4C264.584 171.2 271.484 173.6 279.484 173.6ZM385.654 143.6L452.254 3.79998H509.854L441.454 143.6H385.654ZM385.654 173V143.6L401.254 128.3H558.454V173H385.654ZM485.554 216.5V88.4H538.054V216.5H485.554Z" fill="white"/>
</svg>
