<svg width="105" height="36" viewBox="0 0 105 36" fill="none" xmlns="http://www.w3.org/2000/svg">
<rect x="1.32812" y="1.24683" width="102.206" height="33.4021" rx="6.5" fill="white"/>
<rect x="1.32812" y="1.24683" width="102.206" height="33.4021" rx="6.5" stroke="#2F2F2F"/>
<path d="M70.9447 17.2607V19.2311H69.7096V20.5233H70.9447V24.9138C70.9447 26.413 71.6229 27.0127 73.3292 27.0127C73.629 27.0127 73.9146 26.977 74.1644 26.9342V25.6563C73.9503 25.6777 73.8146 25.692 73.579 25.692C72.8151 25.692 72.4796 25.335 72.4796 24.5212V20.5233H74.1644V19.2311H72.4796V17.2607H70.9447Z" fill="#2F2F2F"/>
<path d="M78.511 27.1198C80.7812 27.1198 82.1734 25.5992 82.1734 23.0791C82.1734 20.5732 80.7741 19.0455 78.511 19.0455C76.2408 19.0455 74.8415 20.5732 74.8415 23.0791C74.8415 25.5992 76.2336 27.1198 78.511 27.1198ZM78.511 25.7562C77.176 25.7562 76.4264 24.7782 76.4264 23.0791C76.4264 21.3942 77.176 20.409 78.511 20.409C79.8389 20.409 80.5956 21.3942 80.5956 23.0791C80.5956 24.771 79.8389 25.7562 78.511 25.7562Z" fill="#2F2F2F"/>
<path d="M83.3645 26.9699H84.8994V22.3794C84.8994 21.2871 85.7204 20.5518 86.884 20.5518C87.1553 20.5518 87.6122 20.6018 87.7407 20.6446V19.1311C87.5765 19.0883 87.2838 19.0669 87.0554 19.0669C86.0416 19.0669 85.1778 19.6237 84.9565 20.3876H84.8423V19.1954H83.3645V26.9699Z" fill="#2F2F2F"/>
<path d="M91.5519 20.3519C92.687 20.3519 93.4295 21.1444 93.4652 22.3651H89.5386C89.6243 21.1515 90.4168 20.3519 91.5519 20.3519ZM93.458 24.871C93.1725 25.4778 92.5371 25.8133 91.609 25.8133C90.3811 25.8133 89.5886 24.9495 89.5386 23.5859V23.5003H95.0286V22.9648C95.0286 20.5233 93.7222 19.0455 91.559 19.0455C89.3673 19.0455 87.9752 20.6232 87.9752 23.1076C87.9752 25.592 89.3387 27.1198 91.5662 27.1198C93.3438 27.1198 94.586 26.2631 94.9358 24.871H93.458Z" fill="#2F2F2F"/>
<path d="M60.879 24.0989C60.9974 26.0079 62.5883 27.2289 64.9561 27.2289C67.4867 27.2289 69.0702 25.9487 69.0702 23.9065C69.0702 22.3008 68.1675 21.4129 65.9772 20.9023L64.8007 20.6137C63.4096 20.2881 62.8473 19.8516 62.8473 19.0894C62.8473 18.1275 63.7204 17.4985 65.0301 17.4985C66.2732 17.4985 67.1316 18.1127 67.2869 19.0968H68.9C68.8038 17.2988 67.2204 16.0334 65.0523 16.0334C62.7215 16.0334 61.1676 17.2988 61.1676 19.2004C61.1676 20.7691 62.0481 21.7014 63.9794 22.1528L65.3557 22.4858C66.769 22.8188 67.3905 23.3071 67.3905 24.1211C67.3905 25.0682 66.4138 25.7564 65.0819 25.7564C63.6538 25.7564 62.6623 25.1126 62.5217 24.0989H60.879Z" fill="#2F2F2F"/>
<path d="M44.9789 19.0669C43.9223 19.0669 43.0085 19.5952 42.5373 20.4804H42.4231V19.1954H40.9453V29.5542H42.4802V25.7919H42.6016C43.0085 26.6129 43.8866 27.0984 44.9932 27.0984C46.9565 27.0984 48.2058 25.5492 48.2058 23.0791C48.2058 20.6089 46.9565 19.0669 44.9789 19.0669ZM44.5434 25.7205C43.2584 25.7205 42.4517 24.7068 42.4517 23.0862C42.4517 21.4585 43.2584 20.4447 44.5506 20.4447C45.8499 20.4447 46.6281 21.4371 46.6281 23.0791C46.6281 24.7282 45.8499 25.7205 44.5434 25.7205Z" fill="#2F2F2F"/>
<path d="M53.5767 19.0669C52.5201 19.0669 51.6063 19.5952 51.1351 20.4804H51.0209V19.1954H49.5431V29.5542H51.078V25.7919H51.1994C51.6063 26.6129 52.4844 27.0984 53.591 27.0984C55.5542 27.0984 56.8036 25.5492 56.8036 23.0791C56.8036 20.6089 55.5542 19.0669 53.5767 19.0669ZM53.1412 25.7205C51.8562 25.7205 51.0494 24.7068 51.0494 23.0862C51.0494 21.4585 51.8562 20.4447 53.1483 20.4447C54.4477 20.4447 55.2258 21.4371 55.2258 23.0791C55.2258 24.7282 54.4477 25.7205 53.1412 25.7205Z" fill="#2F2F2F"/>
<path d="M38.1914 26.9699H39.9525L36.0974 16.2924H34.3141L30.459 26.9699H32.1609L33.145 24.1359H37.2147L38.1914 26.9699ZM35.1207 18.2311H35.2464L36.7929 22.7448H33.5668L35.1207 18.2311Z" fill="#2F2F2F"/>
<path d="M31.49 8.23879V13.3897H33.3497C34.8846 13.3897 35.7735 12.4437 35.7735 10.7982C35.7735 9.17758 34.8775 8.23879 33.3497 8.23879H31.49ZM32.2896 8.96698H33.2605C34.3278 8.96698 34.9596 9.64519 34.9596 10.8089C34.9596 11.9904 34.3385 12.6615 33.2605 12.6615H32.2896V8.96698Z" fill="#2F2F2F"/>
<path d="M38.4956 13.4646C39.6307 13.4646 40.3268 12.7043 40.3268 11.4442C40.3268 10.1913 39.6271 9.42745 38.4956 9.42745C37.3605 9.42745 36.6608 10.1913 36.6608 11.4442C36.6608 12.7043 37.3569 13.4646 38.4956 13.4646ZM38.4956 12.7828C37.8281 12.7828 37.4533 12.2938 37.4533 11.4442C37.4533 10.6018 37.8281 10.1092 38.4956 10.1092C39.1595 10.1092 39.5379 10.6018 39.5379 11.4442C39.5379 12.2902 39.1595 12.7828 38.4956 12.7828Z" fill="#2F2F2F"/>
<path d="M46.2544 9.50241H45.4869L44.7944 12.4687H44.7337L43.9342 9.50241H43.1988L42.3993 12.4687H42.3421L41.6461 9.50241H40.8679L41.9388 13.3897H42.7277L43.5272 10.5269H43.5879L44.3911 13.3897H45.1871L46.2544 9.50241Z" fill="#2F2F2F"/>
<path d="M47.1382 13.3897H47.9057V11.1159C47.9057 10.509 48.2662 10.1307 48.8337 10.1307C49.4013 10.1307 49.6726 10.4412 49.6726 11.0659V13.3897H50.44V10.8731C50.44 9.94861 49.9617 9.42745 49.0943 9.42745C48.5089 9.42745 48.1234 9.68803 47.9342 10.1199H47.8771V9.50241H47.1382V13.3897Z" fill="#2F2F2F"/>
<path d="M51.6487 13.3897H52.4161V7.98535H51.6487V13.3897Z" fill="#2F2F2F"/>
<path d="M55.3025 13.4646C56.4376 13.4646 57.1337 12.7043 57.1337 11.4442C57.1337 10.1913 56.434 9.42745 55.3025 9.42745C54.1674 9.42745 53.4677 10.1913 53.4677 11.4442C53.4677 12.7043 54.1638 13.4646 55.3025 13.4646ZM55.3025 12.7828C54.635 12.7828 54.2602 12.2938 54.2602 11.4442C54.2602 10.6018 54.635 10.1092 55.3025 10.1092C55.9664 10.1092 56.3448 10.6018 56.3448 11.4442C56.3448 12.2902 55.9664 12.7828 55.3025 12.7828Z" fill="#2F2F2F"/>
<path d="M59.4203 12.8078C59.0027 12.8078 58.6993 12.6044 58.6993 12.2545C58.6993 11.9119 58.942 11.7298 59.4774 11.6941L60.4269 11.6334V11.9583C60.4269 12.4402 59.9986 12.8078 59.4203 12.8078ZM59.224 13.4539C59.7344 13.4539 60.1592 13.2326 60.3912 12.8435H60.4519V13.3897H61.1908V10.7339C61.1908 9.91291 60.6411 9.42745 59.6666 9.42745C58.7849 9.42745 58.1567 9.8558 58.0782 10.5233H58.8206C58.9063 10.2484 59.2026 10.0914 59.6309 10.0914C60.1556 10.0914 60.4269 10.3234 60.4269 10.7339V11.0694L59.3739 11.1301C58.4494 11.1872 57.9282 11.5906 57.9282 12.2902C57.9282 13.0006 58.4744 13.4539 59.224 13.4539Z" fill="#2F2F2F"/>
<path d="M63.7952 13.4539C64.3306 13.4539 64.7839 13.2005 65.016 12.7757H65.0766V13.3897H65.812V7.98535H65.0445V10.1199H64.9874C64.7768 9.6916 64.327 9.43816 63.7952 9.43816C62.8135 9.43816 62.1817 10.2163 62.1817 11.4442C62.1817 12.6757 62.8064 13.4539 63.7952 13.4539ZM64.0129 10.1271C64.6554 10.1271 65.0588 10.6375 65.0588 11.4478C65.0588 12.2617 64.659 12.765 64.0129 12.765C63.3632 12.765 62.9742 12.2688 62.9742 11.4442C62.9742 10.6268 63.3668 10.1271 64.0129 10.1271Z" fill="#2F2F2F"/>
<path d="M70.7886 13.4646C71.9238 13.4646 72.6198 12.7043 72.6198 11.4442C72.6198 10.1913 71.9202 9.42745 70.7886 9.42745C69.6535 9.42745 68.9539 10.1913 68.9539 11.4442C68.9539 12.7043 69.6499 13.4646 70.7886 13.4646ZM70.7886 12.7828C70.1211 12.7828 69.7463 12.2938 69.7463 11.4442C69.7463 10.6018 70.1211 10.1092 70.7886 10.1092C71.4526 10.1092 71.8309 10.6018 71.8309 11.4442C71.8309 12.2902 71.4526 12.7828 70.7886 12.7828Z" fill="#2F2F2F"/>
<path d="M73.6357 13.3897H74.4032V11.1159C74.4032 10.509 74.7637 10.1307 75.3313 10.1307C75.8988 10.1307 76.1701 10.4412 76.1701 11.0659V13.3897H76.9375V10.8731C76.9375 9.94861 76.4592 9.42745 75.5918 9.42745C75.0064 9.42745 74.6209 9.68803 74.4317 10.1199H74.3746V9.50241H73.6357V13.3897Z" fill="#2F2F2F"/>
<path d="M80.4721 8.53506V9.52026H79.8546V10.1663H80.4721V12.3616C80.4721 13.1112 80.8112 13.4111 81.6644 13.4111C81.8143 13.4111 81.9571 13.3932 82.082 13.3718V12.7329C81.9749 12.7436 81.9071 12.7507 81.7893 12.7507C81.4073 12.7507 81.2396 12.5722 81.2396 12.1653V10.1663H82.082V9.52026H81.2396V8.53506H80.4721Z" fill="#2F2F2F"/>
<path d="M83.1122 13.3897H83.8796V11.1194C83.8796 10.5304 84.2294 10.1342 84.8577 10.1342C85.4002 10.1342 85.6894 10.4483 85.6894 11.0694V13.3897H86.4568V10.8803C86.4568 9.95575 85.9464 9.43102 85.1183 9.43102C84.5328 9.43102 84.1223 9.6916 83.9332 10.1271H83.8725V7.98535H83.1122V13.3897Z" fill="#2F2F2F"/>
<path d="M89.2254 10.0807C89.7929 10.0807 90.1642 10.4769 90.182 11.0873H88.2188C88.2616 10.4805 88.6578 10.0807 89.2254 10.0807ZM90.1785 12.3402C90.0357 12.6436 89.718 12.8114 89.2539 12.8114C88.64 12.8114 88.2438 12.3795 88.2188 11.6977V11.6549H90.9638V11.3871C90.9638 10.1663 90.3105 9.42745 89.229 9.42745C88.1331 9.42745 87.437 10.2163 87.437 11.4585C87.437 12.7007 88.1188 13.4646 89.2325 13.4646C90.1213 13.4646 90.7424 13.0363 90.9173 12.3402H90.1785Z" fill="#2F2F2F"/>
<path d="M22.1308 18.2065C22.1494 16.7608 22.9258 15.3928 24.1575 14.6356C23.3805 13.5258 22.079 12.8222 20.7249 12.7798C19.2807 12.6282 17.8806 13.644 17.1446 13.644C16.3944 13.644 15.2613 12.7949 14.0411 12.82C12.4507 12.8714 10.968 13.7756 10.1942 15.1661C8.53082 18.0459 9.77152 22.2783 11.3649 24.6061C12.162 25.746 13.0937 27.0192 14.3128 26.9741C15.5058 26.9246 15.9513 26.2134 17.3913 26.2134C18.8179 26.2134 19.2359 26.9741 20.4797 26.9454C21.7598 26.9246 22.5663 25.8004 23.3355 24.6498C23.9083 23.8376 24.3491 22.9399 24.6415 21.9901C23.1371 21.3538 22.1325 19.8399 22.1308 18.2065Z" fill="#2F2F2F"/>
<path d="M19.7814 11.2489C20.4793 10.4111 20.8232 9.33413 20.7399 8.24683C19.6736 8.35882 18.6886 8.86845 17.9812 9.67418C17.2895 10.4614 16.9295 11.5194 16.9976 12.5652C18.0643 12.5761 19.113 12.0803 19.7814 11.2489Z" fill="#2F2F2F"/>
</svg>
