<svg width="34" height="34" viewBox="0 0 34 34" fill="none" xmlns="http://www.w3.org/2000/svg">
<g clip-path="url(#clip0_344_1092)">
<path d="M9.71264 13.3135H9.98632C11.04 13.3135 11.9021 14.1755 11.9021 15.2292V24.808C11.9021 25.8617 11.04 26.7238 9.98632 26.7238H9.71264C8.65897 26.7238 7.79688 25.8617 7.79688 24.808V15.2292C7.79688 14.1755 8.65897 13.3135 9.71264 13.3135ZM17.3757 7.56616C18.4294 7.56616 19.2915 8.42826 19.2915 9.48193V24.808C19.2915 25.8617 18.4294 26.7238 17.3757 26.7238C16.322 26.7238 15.4599 25.8617 15.4599 24.808V9.48193C15.4599 8.42826 16.322 7.56616 17.3757 7.56616ZM25.0388 18.5134C26.0924 18.5134 26.9545 19.3755 26.9545 20.4291V24.808C26.9545 25.8617 26.0924 26.7238 25.0388 26.7238C23.9851 26.7238 23.123 25.8617 23.123 24.808V20.4291C23.123 19.3755 23.9851 18.5134 25.0388 18.5134Z" fill="#F25055"/>
</g>
<defs>
<clipPath id="clip0_344_1092">
<rect width="32.8417" height="32.8417" fill="white" transform="translate(0.955078 0.724121)"/>
</clipPath>
</defs>
</svg>
