<svg width="17" height="17" viewBox="0 0 17 17" fill="none" xmlns="http://www.w3.org/2000/svg">
<path d="M4.48975 0.348877C4.62235 0.348877 4.74953 0.403589 4.8433 0.500977C4.93707 0.598364 4.98975 0.73045 4.98975 0.868177V1.38748H12.9897V0.868177C12.9897 0.73045 13.0424 0.598364 13.1362 0.500977C13.23 0.403589 13.3571 0.348877 13.4897 0.348877C13.6224 0.348877 13.7495 0.403589 13.8433 0.500977C13.9371 0.598364 13.9897 0.73045 13.9897 0.868177V1.38748H14.9897C15.5202 1.38748 16.0289 1.60633 16.404 1.99588C16.779 2.38543 16.9897 2.91377 16.9897 3.46468V14.8893C16.9897 15.4402 16.779 15.9685 16.404 16.3581C16.0289 16.7476 15.5202 16.9665 14.9897 16.9665H2.98975C2.45931 16.9665 1.95061 16.7476 1.57553 16.3581C1.20046 15.9685 0.989746 15.4402 0.989746 14.8893V5.54188H16.9897V4.50328H0.989746V3.46468C0.989746 2.91377 1.20046 2.38543 1.57553 1.99588C1.95061 1.60633 2.45931 1.38748 2.98975 1.38748H3.98975V0.868177C3.98975 0.73045 4.04242 0.598364 4.13619 0.500977C4.22996 0.403589 4.35714 0.348877 4.48975 0.348877Z" fill="#FF3639"/>
</svg>
