<svg width="17" height="16" viewBox="0 0 17 16" fill="none" xmlns="http://www.w3.org/2000/svg">
<path d="M16.9897 8C16.9897 10.1217 16.1469 12.1566 14.6466 13.6569C13.1463 15.1571 11.1115 16 8.98975 16C6.86801 16 4.83318 15.1571 3.33289 13.6569C1.8326 12.1566 0.989746 10.1217 0.989746 8C0.989746 5.87827 1.8326 3.84344 3.33289 2.34315C4.83318 0.842855 6.86801 0 8.98975 0C11.1115 0 13.1463 0.842855 14.6466 2.34315C16.1469 3.84344 16.9897 5.87827 16.9897 8ZM8.98975 3.5C8.98975 3.36739 8.93707 3.24021 8.8433 3.14645C8.74953 3.05268 8.62235 3 8.48975 3C8.35714 3 8.22996 3.05268 8.13619 3.14645C8.04242 3.24021 7.98975 3.36739 7.98975 3.5V9C7.98977 9.08813 8.0131 9.17469 8.05735 9.25091C8.10161 9.32712 8.16522 9.39029 8.24175 9.434L11.7417 11.434C11.8566 11.4961 11.9912 11.5108 12.1167 11.4749C12.2423 11.4391 12.3488 11.3556 12.4136 11.2422C12.4784 11.1288 12.4962 10.9946 12.4634 10.8683C12.4305 10.7419 12.3495 10.6334 12.2377 10.566L8.98975 8.71V3.5Z" fill="#FF3639"/>
</svg>
