<svg width="25" height="24" viewBox="0 0 25 24" fill="none" xmlns="http://www.w3.org/2000/svg">
<path d="M14.5096 8.27611C13.9116 8.6842 13.1797 8.92426 12.3893 8.92426C10.3699 8.92426 8.73275 7.35725 8.73275 5.42426C8.73275 3.49126 10.3699 1.92426 12.3893 1.92426C13.6984 1.92426 14.8467 2.58267 15.4927 3.5724M6.64329 20.0114H9.37034C9.72591 20.0114 10.0793 20.0519 10.424 20.1329L13.3054 20.8031C13.9307 20.9489 14.582 20.9631 15.2137 20.8457L18.3996 20.2524C19.2412 20.0954 20.0154 19.7097 20.6222 19.1448L22.8762 17.046C23.5199 16.4476 23.5199 15.4767 22.8762 14.8773C22.2967 14.3377 21.379 14.2769 20.7233 14.7346L18.0963 16.5691C17.7201 16.8323 17.2623 16.9741 16.7915 16.9741H14.2547L15.8694 16.974C16.7795 16.974 17.5167 16.2876 17.5167 15.4402V15.1334C17.5167 14.4298 17.0024 13.8162 16.2695 13.6461L13.7773 13.066C13.3718 12.9718 12.9564 12.9243 12.5389 12.9243C11.5309 12.9243 9.70633 13.7231 9.70633 13.7231L6.64329 14.9491M21.2696 6.42426C21.2696 8.35725 19.6325 9.92426 17.613 9.92426C15.5935 9.92426 13.9564 8.35725 13.9564 6.42426C13.9564 4.49126 15.5935 2.92426 17.613 2.92426C19.6325 2.92426 21.2696 4.49126 21.2696 6.42426ZM2.46436 14.5243L2.46436 20.3243C2.46436 20.8843 2.46436 21.1643 2.57822 21.3782C2.67839 21.5664 2.83821 21.7194 3.03479 21.8153C3.25827 21.9243 3.55082 21.9243 4.13593 21.9243H4.97171C5.55682 21.9243 5.84937 21.9243 6.07285 21.8153C6.26943 21.7194 6.42926 21.5664 6.52942 21.3782C6.64329 21.1643 6.64329 20.8843 6.64329 20.3243V14.5243C6.64329 13.9642 6.64329 13.6842 6.52942 13.4703C6.42926 13.2821 6.26943 13.1291 6.07285 13.0332C5.84937 12.9243 5.55682 12.9243 4.97172 12.9243L4.13593 12.9243C3.55082 12.9243 3.25827 12.9243 3.03479 13.0332C2.83821 13.1291 2.67839 13.2821 2.57822 13.4703C2.46436 13.6842 2.46436 13.9642 2.46436 14.5243Z" stroke="#0F0F0F" stroke-width="2" stroke-linecap="round" stroke-linejoin="round"/>
</svg>
