<svg width="25" height="25" viewBox="0 0 25 25" fill="none" xmlns="http://www.w3.org/2000/svg">
<g clip-path="url(#clip0_608_651)">
<path d="M12.3894 0.145691C9.20681 0.145691 6.15456 1.40997 3.90412 3.66041C1.65369 5.91085 0.389404 8.96309 0.389404 12.1457C0.389404 15.3283 1.65369 18.3805 3.90412 20.631C6.15456 22.8814 9.20681 24.1457 12.3894 24.1457C15.572 24.1457 18.6243 22.8814 20.8747 20.631C23.1251 18.3805 24.3894 15.3283 24.3894 12.1457C24.3894 8.96309 23.1251 5.91085 20.8747 3.66041C18.6243 1.40997 15.572 0.145691 12.3894 0.145691ZM7.7124 2.74219C7.72989 2.90758 7.80409 3.06181 7.9224 3.17869C8.0043 3.26048 8.06559 3.36055 8.10122 3.47067C8.13685 3.58079 8.14581 3.6978 8.12735 3.81206C8.10889 3.92632 8.06355 4.03456 7.99506 4.12786C7.92657 4.22116 7.83688 4.29685 7.7334 4.34869L7.2969 4.56769C7.19232 4.61908 7.09702 4.68751 7.0149 4.77019L6.2949 5.49019C6.09804 5.68718 5.85022 5.82548 5.5792 5.8896C5.30818 5.95371 5.02466 5.9411 4.7604 5.85319L4.7304 5.84269C4.5073 5.76867 4.26991 5.74811 4.0374 5.78269C5.01294 4.50069 6.27038 3.46035 7.7124 2.74219ZM3.2124 17.2532L4.5024 16.9292C4.82705 16.8482 5.11531 16.661 5.32133 16.3974C5.52735 16.1337 5.63931 15.8088 5.6394 15.4742V15.1982C5.63937 14.9513 5.70027 14.7082 5.81671 14.4905C5.93315 14.2728 6.10153 14.0872 6.3069 13.9502L6.3669 13.9112C6.55173 13.7881 6.70691 13.6254 6.82123 13.435C6.93556 13.2446 7.00618 13.0312 7.02799 12.8102C7.04981 12.5892 7.02227 12.3661 6.94738 12.157C6.87248 11.9479 6.75209 11.7581 6.5949 11.6012L5.0709 10.0772C4.95782 9.96645 4.89129 9.8167 4.8849 9.65855C4.87852 9.5004 4.93277 9.34578 5.03656 9.22628C5.14035 9.10678 5.28586 9.03143 5.44335 9.01561C5.60084 8.9998 5.75842 9.04472 5.8839 9.14119L7.5189 10.3682C7.63027 10.4515 7.76262 10.5023 7.90115 10.5147C8.03969 10.5272 8.17897 10.5008 8.3034 10.4387C8.41775 10.3814 8.54484 10.3543 8.67262 10.36C8.80039 10.3656 8.92459 10.4039 9.03341 10.471C9.14224 10.5382 9.23207 10.6321 9.29438 10.7438C9.35669 10.8555 9.3894 10.9813 9.3894 11.1092V11.7917C9.39105 12.0226 9.45928 12.2481 9.5859 12.4412L10.7784 14.2292C10.852 14.34 10.9105 14.46 10.9524 14.5862L12.0474 17.8712C12.1472 18.1697 12.3383 18.4293 12.5938 18.6132C12.8493 18.797 13.1561 18.8959 13.4709 18.8957H13.5579C13.8729 18.8958 14.1798 18.7967 14.4353 18.6126C14.6908 18.4284 14.8819 18.1685 14.9814 17.8697L16.0764 14.5862C16.1183 14.46 16.1768 14.34 16.2504 14.2292L17.4369 12.4487C17.4988 12.355 17.583 12.2783 17.682 12.2254C17.781 12.1724 17.8917 12.1451 18.0039 12.1457C18.2439 12.1457 18.4629 12.2717 18.5919 12.4727C19.4274 13.7852 21.0369 15.8957 22.1394 15.8957L22.1994 15.8942C21.485 17.7607 20.253 19.3847 18.648 20.5755C17.0429 21.7663 15.1315 22.4746 13.138 22.6171C11.1446 22.7596 9.15183 22.3305 7.39371 21.3801C5.63559 20.4298 4.18506 18.9991 3.2124 17.2532Z" fill="#1B1C22"/>
</g>
<defs>
<clipPath id="clip0_608_651">
<rect width="24" height="24" fill="white" transform="translate(0.389404 0.145691)"/>
</clipPath>
</defs>
</svg>
