<svg width="117" height="36" viewBox="0 0 117 36" fill="none" xmlns="http://www.w3.org/2000/svg">
<rect x="1.06104" y="1.24683" width="115.107" height="33.4021" rx="4.5" fill="white"/>
<rect x="1.06104" y="1.24683" width="115.107" height="33.4021" rx="4.5" stroke="#2F2F2F"/>
<path d="M59.1616 19.4539C57.1388 19.4539 55.4901 20.9925 55.4901 23.1117C55.4901 25.218 57.1388 26.7695 59.1616 26.7695C61.1853 26.7695 62.8341 25.218 62.8341 23.1117C62.8332 20.9925 61.1845 19.4539 59.1616 19.4539ZM59.1616 25.3298C58.053 25.3298 57.0975 24.4155 57.0975 23.1126C57.0975 21.7958 58.0539 20.8953 59.1616 20.8953C60.2702 20.8953 61.2258 21.7958 61.2258 23.1126C61.2258 24.4147 60.2702 25.3298 59.1616 25.3298ZM51.1511 19.4539C49.1283 19.4539 47.4795 20.9925 47.4795 23.1117C47.4795 25.218 49.1283 26.7695 51.1511 26.7695C53.1748 26.7695 54.8235 25.218 54.8235 23.1117C54.8235 20.9925 53.1748 19.4539 51.1511 19.4539ZM51.1511 25.3298C50.0425 25.3298 49.087 24.4155 49.087 23.1126C49.087 21.7958 50.0434 20.8953 51.1511 20.8953C52.2597 20.8953 53.2152 21.7958 53.2152 23.1126C53.2161 24.4147 52.2597 25.3298 51.1511 25.3298ZM41.6234 20.5771V22.1287H45.3372C45.2262 23.0016 44.9355 23.6389 44.4917 24.0818C43.9516 24.6219 43.1062 25.218 41.6234 25.218C39.3374 25.218 37.5502 23.3749 37.5502 21.0889C37.5502 18.8028 39.3374 16.9597 41.6234 16.9597C42.8568 16.9597 43.7572 17.4448 44.4221 18.0683L45.5169 16.9735C44.588 16.0868 43.3556 15.4082 41.6234 15.4082C38.492 15.4082 35.8594 17.9574 35.8594 21.0889C35.8594 24.2203 38.492 26.7695 41.6234 26.7695C43.3134 26.7695 44.5889 26.2148 45.5857 25.1758C46.6109 24.1506 46.93 22.7092 46.93 21.5455C46.93 21.186 46.9024 20.8532 46.8465 20.5763H41.6234V20.5771ZM80.5907 21.7821C80.2862 20.965 79.3574 19.4539 77.4593 19.4539C75.5749 19.4539 74.0087 20.9366 74.0087 23.1117C74.0087 25.1621 75.5611 26.7695 77.639 26.7695C79.3152 26.7695 80.2854 25.7443 80.6879 25.1483L79.4408 24.3166C79.0254 24.9264 78.4569 25.328 77.639 25.328C76.822 25.328 76.2397 24.9539 75.8656 24.2194L80.7567 22.1966L80.5907 21.7821ZM75.6024 23.0016C75.5611 21.5877 76.6972 20.8678 77.5152 20.8678C78.1525 20.8678 78.6926 21.1869 78.8732 21.6436L75.6024 23.0016ZM71.6264 26.5485H73.233V15.7969H71.6264V26.5485ZM68.9929 20.2718H68.9379C68.5775 19.8418 67.8843 19.4539 67.0122 19.4539C65.1829 19.4539 63.5066 21.0613 63.5066 23.1263C63.5066 25.1767 65.1829 26.7704 67.0122 26.7704C67.8851 26.7704 68.5775 26.3825 68.9379 25.9395H68.9929V26.4659C68.9929 27.8652 68.2446 28.6135 67.0397 28.6135C66.0558 28.6135 65.446 27.9073 65.1966 27.3113L63.7973 27.8936C64.199 28.8629 65.2654 30.0549 67.0397 30.0549C68.9241 30.0549 70.5178 28.9463 70.5178 26.244V19.6766H68.9938V20.2718H68.9929ZM67.1507 25.3298C66.0421 25.3298 65.1141 24.4009 65.1141 23.1263C65.1141 21.8371 66.0421 20.8953 67.1507 20.8953C68.2447 20.8953 69.1038 21.8371 69.1038 23.1263C69.1038 24.4009 68.2447 25.3298 67.1507 25.3298ZM88.1196 15.7969H84.2743V26.5485H85.8783V22.4753H88.1187C89.8973 22.4753 91.6467 21.1878 91.6467 19.1365C91.6467 17.0853 89.8982 15.7969 88.1196 15.7969ZM88.1609 20.9788H85.8783V17.2934H88.1609C89.3607 17.2934 90.0418 18.2868 90.0418 19.1365C90.0418 19.9691 89.3607 20.9788 88.1609 20.9788ZM98.079 19.435C96.9171 19.435 95.7139 19.9467 95.2159 21.0811L96.6401 21.6754C96.9446 21.0811 97.5122 20.8867 98.1065 20.8867C98.9365 20.8867 99.7802 21.3847 99.7939 22.2697V22.3806C99.5033 22.2147 98.8806 21.9661 98.1203 21.9661C96.5851 21.9661 95.0215 22.8098 95.0215 24.3863C95.0215 25.8252 96.2806 26.7514 97.6911 26.7514C98.7696 26.7514 99.3648 26.2672 99.738 25.6996H99.7931V26.5295H101.343V22.4073C101.344 20.4997 99.9178 19.435 98.079 19.435ZM97.8846 25.3272C97.36 25.3272 96.6264 25.064 96.6264 24.4138C96.6264 23.5839 97.5398 23.2656 98.3284 23.2656C99.0328 23.2656 99.3656 23.4179 99.7939 23.6251C99.6692 24.6219 98.8118 25.3272 97.8846 25.3272ZM106.987 19.6698L105.147 24.3312H105.092L103.183 19.6698H101.454L104.317 26.1847L102.685 29.8089H104.358L108.771 19.6698H106.987ZM92.5325 26.5485H94.1365V15.7969H92.5325V26.5485Z" fill="#2F2F2F"/>
<path d="M41.3431 9.55634C41.3431 10.2771 41.1298 10.8507 40.7023 11.279C40.2172 11.7882 39.5842 12.0428 38.8068 12.0428C38.062 12.0428 37.4281 11.7847 36.9078 11.2687C36.3866 10.7518 36.126 10.1119 36.126 9.34821C36.126 8.58362 36.3866 7.94374 36.9078 7.42771C37.4281 6.91082 38.062 6.6528 38.8068 6.6528C39.1766 6.6528 39.5301 6.72505 39.8655 6.86868C40.2018 7.01317 40.471 7.20496 40.6722 7.44491L40.219 7.89902C39.8775 7.49049 39.4071 7.28666 38.8059 7.28666C38.2623 7.28666 37.7928 7.47759 37.3963 7.85946C36.9998 8.24132 36.802 8.73757 36.802 9.34735C36.802 9.95712 36.9998 10.4534 37.3963 10.8352C37.7928 11.2171 38.2623 11.408 38.8059 11.408C39.3821 11.408 39.8629 11.2162 40.2473 10.8318C40.4968 10.5815 40.6413 10.2332 40.68 9.78683H38.8059V9.16674H41.3061C41.3319 9.30177 41.3431 9.43163 41.3431 9.55634Z" fill="#2F2F2F"/>
<path d="M45.308 7.4011H42.9583V9.03692H45.0775V9.65702H42.9583V11.2928H45.308V11.9276H42.2952V6.76724H45.308V7.4011Z" fill="#2F2F2F"/>
<path d="M48.1039 11.9276H47.4408V7.4011H45.9994V6.76724H49.5454V7.4011H48.1039V11.9276Z" fill="#2F2F2F"/>
<path d="M52.1109 11.9276V6.76724H52.774V11.9276H52.1109Z" fill="#2F2F2F"/>
<path d="M55.7146 11.9276H55.0515V7.4011H53.6101V6.76724H57.1561V7.4011H55.7146V11.9276Z" fill="#2F2F2F"/>
<path d="M63.8686 11.261C63.3612 11.7822 62.7307 12.0428 61.9765 12.0428C61.2222 12.0428 60.5918 11.7822 60.0852 11.261C59.5778 10.7398 59.3249 10.1017 59.3249 9.34739C59.3249 8.59312 59.5778 7.95496 60.0852 7.43377C60.5918 6.91258 61.2222 6.65112 61.9765 6.65112C62.7264 6.65112 63.356 6.91344 63.8651 7.43721C64.3743 7.96098 64.6289 8.59742 64.6289 9.34739C64.6289 10.1017 64.3752 10.7398 63.8686 11.261ZM60.5746 10.8284C60.9564 11.2154 61.4235 11.4081 61.9765 11.4081C62.5295 11.4081 62.9974 11.2146 63.3784 10.8284C63.7602 10.4414 63.952 9.9477 63.952 9.34739C63.952 8.74707 63.7602 8.2534 63.3784 7.86638C62.9974 7.47935 62.5295 7.2867 61.9765 7.2867C61.4235 7.2867 60.9564 7.48021 60.5746 7.86638C60.1936 8.2534 60.0018 8.74707 60.0018 9.34739C60.0018 9.9477 60.1936 10.4414 60.5746 10.8284Z" fill="#2F2F2F"/>
<path d="M65.5595 11.9276V6.76724H66.3662L68.8741 10.7811H68.9025L68.8741 9.78688V6.76724H69.5372V11.9276H68.8449L66.2208 7.71846H66.1925L66.2208 8.71268V11.9276H65.5595Z" fill="#2F2F2F"/>
<path d="M41.3431 9.55634C41.3431 10.2771 41.1298 10.8507 40.7023 11.279C40.2172 11.7882 39.5842 12.0428 38.8068 12.0428C38.062 12.0428 37.4281 11.7847 36.9078 11.2687C36.3866 10.7518 36.126 10.1119 36.126 9.34821C36.126 8.58362 36.3866 7.94374 36.9078 7.42771C37.4281 6.91082 38.062 6.6528 38.8068 6.6528C39.1766 6.6528 39.5301 6.72505 39.8655 6.86868C40.2018 7.01317 40.471 7.20496 40.6722 7.44491L40.219 7.89902C39.8775 7.49049 39.4071 7.28666 38.8059 7.28666C38.2623 7.28666 37.7928 7.47759 37.3963 7.85946C36.9998 8.24132 36.802 8.73757 36.802 9.34735C36.802 9.95712 36.9998 10.4534 37.3963 10.8352C37.7928 11.2171 38.2623 11.408 38.8059 11.408C39.3821 11.408 39.8629 11.2162 40.2473 10.8318C40.4968 10.5815 40.6413 10.2332 40.68 9.78683H38.8059V9.16674H41.3061C41.3319 9.30177 41.3431 9.43163 41.3431 9.55634Z" stroke="black" stroke-width="0.2" stroke-miterlimit="10"/>
<path d="M45.308 7.4011H42.9583V9.03692H45.0775V9.65702H42.9583V11.2928H45.308V11.9276H42.2952V6.76724H45.308V7.4011Z" stroke="black" stroke-width="0.2" stroke-miterlimit="10"/>
<path d="M48.1039 11.9276H47.4408V7.4011H45.9994V6.76724H49.5454V7.4011H48.1039V11.9276Z" stroke="black" stroke-width="0.2" stroke-miterlimit="10"/>
<path d="M52.1109 11.9276V6.76724H52.774V11.9276H52.1109Z" stroke="black" stroke-width="0.2" stroke-miterlimit="10"/>
<path d="M55.7146 11.9276H55.0515V7.4011H53.6101V6.76724H57.1561V7.4011H55.7146V11.9276Z" stroke="black" stroke-width="0.2" stroke-miterlimit="10"/>
<path d="M63.8686 11.261C63.3612 11.7822 62.7307 12.0428 61.9765 12.0428C61.2222 12.0428 60.5918 11.7822 60.0852 11.261C59.5778 10.7398 59.3249 10.1017 59.3249 9.34739C59.3249 8.59312 59.5778 7.95496 60.0852 7.43377C60.5918 6.91258 61.2222 6.65112 61.9765 6.65112C62.7264 6.65112 63.356 6.91344 63.8651 7.43721C64.3743 7.96098 64.6289 8.59742 64.6289 9.34739C64.6289 10.1017 64.3752 10.7398 63.8686 11.261ZM60.5746 10.8284C60.9564 11.2154 61.4235 11.4081 61.9765 11.4081C62.5295 11.4081 62.9974 11.2146 63.3784 10.8284C63.7602 10.4414 63.952 9.9477 63.952 9.34739C63.952 8.74707 63.7602 8.2534 63.3784 7.86638C62.9974 7.47935 62.5295 7.2867 61.9765 7.2867C61.4235 7.2867 60.9564 7.48021 60.5746 7.86638C60.1936 8.2534 60.0018 8.74707 60.0018 9.34739C60.0018 9.9477 60.1936 10.4414 60.5746 10.8284Z" stroke="black" stroke-width="0.2" stroke-miterlimit="10"/>
<path d="M65.5595 11.9276V6.76724H66.3662L68.8741 10.7811H68.9025L68.8741 9.78688V6.76724H69.5372V11.9276H68.8449L66.2208 7.71846H66.1925L66.2208 8.71268V11.9276H65.5595Z" stroke="black" stroke-width="0.2" stroke-miterlimit="10"/>
<path fill-rule="evenodd" clip-rule="evenodd" d="M22.7349 12.951L12.8884 7.24069C12.5141 7.01656 12.0774 6.88721 11.6101 6.88721C10.6717 6.88721 9.84339 7.44048 9.42481 8.22286L9.51506 8.31309L18.4445 17.2406L22.7349 12.951ZM9.13578 9.34795C9.13575 9.35237 9.13574 9.35679 9.13574 9.36121V26.5344C9.13574 26.5388 9.13575 26.5432 9.13578 26.5475L17.7373 17.9477L9.13578 9.34795ZM9.42483 27.6726C9.84348 28.455 10.6719 29.0083 11.6101 29.0083C12.0673 29.0083 12.4967 28.8847 12.8649 28.6677L12.8941 28.6505L22.7518 22.9611L18.4445 18.6547L9.51506 27.5824L9.42483 27.6726ZM23.6485 22.4435L27.6255 20.1482C28.4016 19.7292 28.9283 18.9111 28.9283 17.9678C28.9283 17.0312 28.4086 16.2171 27.6403 15.7968L27.6316 15.7908L23.63 13.4702L19.1517 17.9476L23.6485 22.4435Z" fill="#2F2F2F"/>
</svg>
