<svg width="76" height="76" viewBox="0 0 76 76" fill="none" xmlns="http://www.w3.org/2000/svg">
<g id="Group 1000001803">
<circle id="Ellipse 15" cx="37.8002" cy="37.9298" r="37.5704" fill="white"/>
<g id="Group 1000001802">
<g id="g18">
<path id="path20" d="M51.9669 47.4332C51.1269 48.3589 49.9299 48.8792 48.6801 48.8792H26.9205C25.6707 48.8792 24.4738 48.3589 23.6338 47.4332C21.2551 44.8119 19.8376 41.5131 19.8376 37.9295C19.8376 34.346 21.2548 31.0472 23.6335 28.4261C24.4736 27.5001 25.6705 26.9797 26.9205 26.9797H48.6798C49.9449 26.9797 51.1488 27.519 51.9963 28.4583C54.3574 31.0743 55.7627 34.3607 55.7627 37.9295C55.7627 41.5131 54.3454 44.8119 51.9669 47.4332ZM37.8002 18.3175C25.2119 18.3175 15.0071 27.0983 15.0071 37.9295C15.0071 43.5104 17.7162 48.5467 22.0645 52.1179C22.0089 53.8208 21.4147 55.5063 20.3754 56.8579C22.3901 56.7774 24.3637 55.9747 25.8813 54.6497C29.3491 56.4836 33.4313 57.5417 37.8002 57.5417C50.3886 57.5417 60.5935 48.7608 60.5935 37.9295C60.5935 27.0983 50.3886 18.3175 37.8002 18.3175Z" fill="#F25055"/>
</g>
<path id="path22" d="M13.9216 37.9295C13.9216 40.6196 14.5047 43.2283 15.6566 45.6931C12.5793 44.6812 10.3398 42.6782 10.3398 37.9295C10.3398 33.4251 12.5793 31.1778 15.6569 30.1659C14.5053 32.6319 13.9216 35.2418 13.9216 37.9295Z" fill="#F25055"/>
<path id="path24" d="M12.9987 24.3438V30.2234C12.2001 30.7389 11.5245 31.3605 10.9782 32.0843C10.9734 32.0909 10.9685 32.0969 10.9639 32.1035V24.3438C10.9639 23.782 11.4194 23.3266 11.9811 23.3266C12.5431 23.3266 12.9987 23.782 12.9987 24.3438Z" fill="#F25055"/>
<g id="g26">
<path id="path28" d="M61.6787 37.9295C61.6787 40.6196 61.0955 43.2283 59.9436 45.6931C63.021 44.6812 65.2605 42.6782 65.2605 37.9295C65.2605 33.4253 63.021 31.1779 59.9436 30.166C61.0951 32.632 61.6787 35.2418 61.6787 37.9295Z" fill="#F25055"/>
</g>
<g id="g30">
<path id="path32" d="M62.6016 24.3436V30.2233C63.4003 30.7388 64.0759 31.3604 64.6222 32.0842C64.627 32.0908 64.6318 32.097 64.6365 32.1033V24.3436C64.6365 23.7819 64.1806 23.3263 63.6192 23.3263C63.0571 23.3263 62.6016 23.7819 62.6016 24.3436Z" fill="#F25055"/>
</g>
<path id="path34" d="M32.9566 37.3214C32.2946 38.3407 31.339 37.3214 29.3431 37.3214C27.3474 37.3214 26.3918 38.3407 25.7298 37.3214C25.0889 36.3344 26.8572 33.8997 29.3431 33.8997C31.8289 33.8997 33.5972 36.3344 32.9566 37.3214Z" fill="#F25055"/>
<path id="path36" d="M49.8709 37.3214C49.2087 38.3407 48.253 37.3214 46.2572 37.3214C44.2617 37.3214 43.306 38.3407 42.6438 37.3214C42.003 36.3344 43.7714 33.8997 46.2572 33.8997C48.743 33.8997 50.5114 36.3344 49.8709 37.3214Z" fill="#F25055"/>
<path id="path38" d="M37.7999 41.9592C36.407 41.9592 35.4877 40.8545 35.4492 40.8077C35.241 40.5529 35.2786 40.1773 35.5334 39.9691C35.7884 39.7606 36.1637 39.7985 36.3722 40.0533C36.3758 40.0578 36.9797 40.7674 37.7999 40.7674C38.6201 40.7674 39.2239 40.0578 39.2299 40.0506C39.4381 39.7958 39.8125 39.7594 40.0676 39.9676C40.3223 40.1761 40.359 40.5529 40.1505 40.8077C40.112 40.8545 39.193 41.9592 37.7999 41.9592Z" fill="#F25055"/>
</g>
</g>
</svg>
