<svg width="29" height="29" viewBox="0 0 29 29" fill="none" xmlns="http://www.w3.org/2000/svg">
<g clip-path="url(#clip0_7768_230)">
<path d="M13.3543 19.3926C14.7518 19.3926 16.0613 18.9707 17.1512 18.25L21.0008 22.1084C21.2557 22.3545 21.5809 22.4775 21.9324 22.4775C22.6619 22.4775 23.1981 21.9062 23.1981 21.1855C23.1981 20.8516 23.0838 20.5264 22.8377 20.2803L19.0145 16.4395C19.8055 15.3145 20.2713 13.9521 20.2713 12.4756C20.2713 8.66992 17.16 5.55859 13.3543 5.55859C9.55743 5.55859 6.43732 8.66992 6.43732 12.4756C6.43732 16.2812 9.54865 19.3926 13.3543 19.3926ZM13.3543 17.5469C10.5682 17.5469 8.28302 15.2617 8.28302 12.4756C8.28302 9.68945 10.5682 7.4043 13.3543 7.4043C16.1404 7.4043 18.4256 9.68945 18.4256 12.4756C18.4256 15.2617 16.1404 17.5469 13.3543 17.5469Z" fill="#F25055"/>
</g>
<defs>
<clipPath id="clip0_7768_230">
<rect width="28" height="28" fill="white" transform="translate(0.822083 0.359375)"/>
</clipPath>
</defs>
</svg>
