<svg width="179" height="178" viewBox="0 0 179 178" fill="none" xmlns="http://www.w3.org/2000/svg">
<g id="indonesia logo 1">
<path id="Vector" d="M109.631 70.9526C104.337 65.1 96.5067 61.7656 88.6196 62.0545C81.0653 62.3245 73.7811 65.8661 68.9019 71.6433" stroke="black" stroke-width="2.8" stroke-linecap="round"/>
<path id="Vector_2" d="M68.9019 106.514C73.8627 112.385 81.2788 116.121 89.5678 116.121C97.8568 116.121 105.273 112.385 110.234 106.514" stroke="black" stroke-width="2.8" stroke-linecap="round"/>
<g id="Group">
<g id="Group_2">
<path id="Vector_3" d="M101.386 88.7926C101.386 88.554 101.436 88.2463 101.537 87.8632C101.669 87.3483 101.851 86.8522 102.07 86.375C102.19 86.0924 102.309 85.7847 102.422 85.4456C102.541 85.1065 102.636 84.736 102.711 84.3404C103.006 83.6622 103.27 82.9966 103.502 82.3561C103.735 81.7156 103.873 81.3011 103.935 81.1253C103.948 81.0248 104.193 80.4597 104.664 79.4424L105.041 78.6449C105.399 77.6527 105.725 76.8552 106.027 76.2524C106.328 75.6495 106.711 74.9965 107.169 74.2994C107.408 73.9164 107.76 73.7217 108.231 73.7217C108.513 73.7217 108.764 73.7908 108.984 73.9227C109.204 74.0545 109.355 74.2429 109.43 74.4753C109.562 74.7892 109.662 75.1283 109.725 75.4925C109.794 75.863 109.838 76.5224 109.87 77.4643C109.882 77.7595 109.888 78.1865 109.888 78.7516C109.92 79.995 109.958 80.9369 110.002 81.5774C110.045 82.2179 110.14 82.8082 110.29 83.342C110.378 83.9323 110.429 84.3279 110.447 84.5162C110.535 85.2133 110.617 85.747 110.686 86.1364C110.761 86.5194 110.837 86.7141 110.906 86.7141C111.082 86.7141 111.333 86.2996 111.653 85.4707C111.973 84.6418 112.444 82.9338 113.085 80.3466C113.173 80.0515 113.279 79.6245 113.392 79.0593C113.512 78.5004 113.6 77.9541 113.656 77.4204C113.819 76.8175 113.976 76.1833 114.133 75.5239C114.29 74.8646 114.366 74.5067 114.366 74.4501C114.366 74.3748 114.366 74.2994 114.378 74.2304C114.378 74.155 114.378 74.0671 114.366 73.9666C114.422 73.9666 114.485 73.8724 114.554 73.6778C114.623 73.4894 114.655 73.3073 114.655 73.144C114.655 72.717 114.755 72.3967 114.962 72.1895C115.126 71.8944 115.364 71.7437 115.672 71.7437C115.911 71.7437 116.13 71.819 116.338 71.976C116.545 72.133 116.67 72.3088 116.714 72.5223C116.758 72.83 116.551 73.9603 116.093 75.9133C116.093 76.0891 115.986 76.6229 115.785 77.5083C115.653 78.0106 115.546 78.4942 115.477 78.9463C115.414 79.3733 115.345 79.7438 115.264 80.0515C115.182 80.3655 115.113 80.5099 115.057 80.4973C114.454 83.0971 113.669 85.477 112.727 87.6309C112.507 88.1521 112.243 88.554 111.929 88.8429C111.622 89.1317 111.295 89.2761 110.956 89.2761C110.548 89.2761 110.165 89.0626 109.826 88.6356C109.38 88.0579 109.06 87.4676 108.852 86.8711C108.645 86.2682 108.476 85.4142 108.344 84.2902C108.08 82.6512 107.948 80.9934 107.948 79.3231V78.6135C107.961 77.5774 107.898 77.0624 107.747 77.0624C107.659 77.0624 107.553 77.1943 107.433 77.4643C107.314 77.7281 107.169 78.1237 106.994 78.6386C106.918 78.8772 106.585 79.7438 105.995 81.2509L105.618 82.2242C105.348 82.758 105.154 83.298 105.022 83.8443C104.563 85.0249 104.206 86.0736 103.948 86.9904C103.691 87.9072 103.546 88.4221 103.515 88.5414C103.471 88.7047 103.427 88.8617 103.395 89.0061C103.358 89.1506 103.32 89.2887 103.27 89.4017C103.151 89.7094 103.056 89.9229 102.981 90.036C102.906 90.149 102.811 90.2055 102.692 90.2055C102.541 90.2055 102.353 90.1302 102.114 89.9857C101.625 89.7346 101.386 89.3327 101.386 88.7863V88.7926Z" fill="#838281" stroke="#838281" stroke-width="0.93"/>
<path id="Vector_4" d="M116.746 87.3923C116.225 86.9214 115.967 86.2494 115.967 85.3766C115.967 85.0375 115.992 84.6607 116.036 84.2463C116.068 83.8883 116.212 83.4048 116.469 82.7831C116.727 82.1615 117.079 81.5586 117.531 80.9683C117.983 80.3781 118.51 79.9385 119.119 79.6622C119.402 79.5303 119.634 79.4361 119.829 79.3859C120.024 79.3357 120.243 79.3105 120.495 79.3105C121.104 79.3105 121.594 79.4236 121.97 79.6434C122.347 79.8631 122.617 80.1143 122.768 80.3969C122.925 80.6795 123 80.9181 123 81.1253V81.3012C123 81.477 122.893 81.8035 122.686 82.2808C122.479 82.7517 122.152 83.1976 121.7 83.612C121.248 84.0265 120.67 84.2525 119.961 84.3028C119.609 84.3028 119.264 84.2714 118.931 84.2023C118.598 84.1332 118.391 84.1018 118.297 84.1018C118.077 84.1018 117.939 84.1835 117.876 84.3467C117.813 84.51 117.788 84.78 117.788 85.1631C117.832 85.5775 117.945 85.8664 118.133 86.0297C118.316 86.1929 118.586 86.2746 118.944 86.2746C119.119 86.2746 119.327 86.2243 119.565 86.1176C119.798 85.9983 120.08 85.8162 120.407 85.565C120.583 85.4143 120.721 85.3138 120.827 85.2573C120.934 85.2008 121.06 85.1694 121.204 85.1694C121.336 85.1694 121.493 85.2573 121.669 85.4331C121.845 85.6089 121.939 85.7785 121.951 85.9417C121.926 86.1176 121.763 86.3876 121.468 86.7393C121.173 87.0972 120.79 87.4112 120.312 87.6937C119.842 87.9763 119.333 88.1145 118.787 88.1145C117.945 88.1145 117.261 87.8821 116.746 87.4049V87.3923ZM120.137 82.6764C120.287 82.601 120.507 82.4126 120.815 82.1112C121.116 81.8098 121.28 81.5963 121.292 81.477C121.292 81.3326 121.229 81.207 121.104 81.1128C120.978 81.0186 120.802 80.9558 120.583 80.9244H120.338C120.149 80.9244 119.867 81.0877 119.509 81.4016C119.144 81.7156 118.837 82.0861 118.567 82.5006C118.579 82.5759 118.692 82.6387 118.9 82.6889C119.107 82.7392 119.327 82.7643 119.565 82.7643C119.848 82.7643 120.036 82.7329 120.143 82.6764H120.137Z" fill="#838281" stroke="#838281" stroke-width="0.93"/>
<path id="Vector_5" d="M124.564 86.94C124.344 86.6072 124.168 86.1928 124.043 85.6967C123.911 85.2006 123.867 84.7233 123.898 84.2649C123.898 83.7312 123.936 83.2916 124.011 82.9337C124.087 82.582 124.13 82.3622 124.143 82.268C124.174 82.1927 124.2 82.0671 124.231 81.8787C124.262 81.6966 124.319 81.4329 124.407 81.0938C124.514 80.6668 124.627 80.3465 124.765 80.1393C124.972 79.8441 125.242 79.6997 125.581 79.6997C125.763 79.6997 125.92 79.7499 126.058 79.8441C126.196 79.9383 126.278 80.0765 126.291 80.2586C126.385 80.3465 126.423 80.56 126.423 80.8991C126.423 81.1503 126.397 81.3952 126.353 81.6275C126.309 81.8599 126.253 82.0294 126.171 82.1362C126.127 82.2241 126.065 82.6511 125.977 83.4235C125.914 83.9824 125.87 84.3466 125.845 84.5098C125.826 84.5664 125.826 84.648 125.826 84.7547C125.826 84.9494 125.876 85.0436 125.983 85.0436C126.203 85.0436 126.611 84.6103 127.201 83.7375C127.597 83.1472 127.861 82.7202 127.986 82.4627C128.112 82.2053 128.275 81.8034 128.463 81.2759C128.614 80.8175 128.746 80.5223 128.859 80.3905C129.01 80.1832 129.217 80.0828 129.481 80.0828C129.744 80.0828 129.97 80.1644 130.19 80.3277C130.416 80.5474 130.523 80.8363 130.523 81.1942C130.523 81.458 130.448 81.7406 130.303 82.0357C130.127 82.4062 129.964 82.852 129.813 83.3858C129.669 83.9196 129.594 84.3528 129.594 84.6919C129.594 84.962 129.625 85.1252 129.694 85.1943C129.763 85.2571 129.87 85.2948 130.014 85.2948C130.178 85.2948 130.341 85.2383 130.492 85.119C130.649 84.9996 130.894 84.7736 131.233 84.4345C131.484 84.1833 131.829 83.7123 132.275 83.0153C132.721 82.3183 132.941 81.9038 132.941 81.772C132.941 81.684 133.01 81.5585 133.142 81.3952C133.217 81.2947 133.286 81.2005 133.349 81.1314C133.418 81.0561 133.518 80.9807 133.644 80.9117C133.732 80.8803 133.807 80.8677 133.87 80.8677C134.077 80.8677 134.259 80.9493 134.423 81.1126C134.479 81.1691 134.536 81.3135 134.58 81.5333C134.624 81.7531 134.642 81.9603 134.642 82.155C134.335 83.3104 134.09 83.9824 133.908 84.1707C133.631 84.3905 133.393 84.6668 133.198 84.9934C132.846 85.4204 132.564 85.7218 132.369 85.8913C132.168 86.0609 132.036 86.1802 131.98 86.2367C131.653 86.5633 131.277 86.8207 130.85 87.0154C130.423 87.21 130.021 87.3042 129.65 87.3042C129.355 87.3042 129.123 87.2352 128.941 87.1033C128.482 86.8647 128.256 86.4691 128.256 85.9039C128.256 85.8034 128.237 85.703 128.212 85.615C128.181 85.5271 128.162 85.4706 128.143 85.4392C127.923 85.4392 127.747 85.5585 127.609 85.7972C127.402 86.1488 127.019 86.5193 126.466 86.8961C125.914 87.2728 125.493 87.4612 125.217 87.4612C124.997 87.4612 124.771 87.2917 124.551 86.9651L124.564 86.94Z" fill="#838281" stroke="#838281" stroke-width="0.93"/>
</g>
<g id="Group_3">
<path id="Vector_6" d="M52.6128 90.6764C52.4496 90.5759 52.3365 90.444 52.2737 90.2871C52.1984 90.2117 52.0916 90.0359 51.9598 89.7721C51.8279 89.5084 51.7463 89.2886 51.7149 89.1191C51.6521 88.3718 51.6207 87.8255 51.6207 87.4801C51.6207 87.0468 51.6458 86.4503 51.6897 85.703C51.7525 84.9243 51.8656 84.2461 52.0288 83.6621C52.1921 83.0844 52.3931 82.469 52.6254 81.816C52.6882 81.6778 52.7321 81.5585 52.7635 81.4643C52.7949 81.3701 52.7949 81.3261 52.7635 81.3261C52.6568 81.345 52.4621 81.6652 52.1795 82.312C52.1356 82.4062 52.0728 82.5318 52.0037 82.6888C51.9284 82.8458 51.8405 83.0153 51.7337 83.2037C51.2941 84.1708 50.4903 85.6402 49.3224 87.6057C49.1779 87.7752 48.9833 88.0515 48.7384 88.4283C48.2548 89.163 47.8529 89.6717 47.5452 89.948C47.1057 90.3687 46.6473 90.5822 46.1637 90.5822C45.9628 90.5822 45.7305 90.5257 45.4855 90.4189C45.2344 90.3875 44.9957 90.218 44.7571 89.904C44.5248 89.59 44.4369 89.2949 44.4997 89.0123C44.4557 88.623 44.4997 87.8192 44.6315 86.6135C44.7634 85.4079 44.9016 84.3969 45.0397 83.5805C45.1465 82.8332 45.3914 81.5962 45.7681 79.8819L46.2831 77.3512C46.3772 77.1189 46.5217 76.6479 46.7289 75.9446L46.9361 75.1722C46.955 74.921 47.0303 74.7389 47.181 74.6196C47.3317 74.5003 47.5138 74.4438 47.7336 74.4438C47.9157 74.4438 48.0978 74.4752 48.2737 74.5505C48.4432 74.6196 48.5688 74.7075 48.6442 74.8205C48.9707 75.1785 49.134 75.5678 49.134 75.9885C49.134 76.2397 49.0775 76.5035 48.9707 76.786C48.2674 78.5066 47.7085 80.7673 47.2878 83.5742C47.1308 84.5413 46.9989 85.4518 46.8796 86.3121C46.7603 87.1724 46.7352 87.6057 46.798 87.6245C47.0303 87.6873 47.3317 87.342 47.6897 86.5947C48.7195 84.8929 49.9001 82.7453 51.2251 80.1582C51.2565 80.1142 51.6018 79.4737 52.2549 78.2366L52.8138 77.1817L53.1906 76.5035C53.5987 75.7688 53.9127 75.2162 54.1513 74.8394C54.3837 74.4626 54.5595 74.2554 54.6662 74.2114C55.0556 74.2114 55.357 74.3119 55.5705 74.5003C55.784 74.695 55.9661 74.9712 56.1168 75.3292C56.1482 75.4548 56.1671 75.6055 56.1671 75.775C56.1671 75.932 56.1419 76.0827 56.098 76.2209C56.0666 76.3151 55.9912 76.5474 55.8719 76.9242C55.7526 77.301 55.6584 77.6777 55.5768 78.0482C55.2816 78.8269 55.0619 79.5867 54.9237 80.3214C54.8609 80.6166 54.7981 80.9054 54.7353 81.188C54.6725 81.4706 54.616 81.7343 54.5721 81.9855C54.3083 83.1598 54.1074 84.1331 53.9755 84.9118C53.8436 85.6904 53.7683 86.3875 53.7557 86.9966C53.7369 87.4047 53.7432 87.6748 53.7683 87.8129C53.7934 87.9573 53.8373 88.1018 53.8939 88.2588C53.9127 88.3341 53.9504 88.3781 54.0132 88.3781C54.1074 88.3781 54.2518 88.2588 54.4339 88.0264C54.6537 87.7313 54.8295 87.4424 54.9614 87.1599C55.0933 86.8773 55.1812 86.6889 55.2314 86.5947C55.4198 86.1426 55.6145 85.7344 55.8154 85.3765C56.3617 84.3466 56.952 83.1598 57.5862 81.816C58.2142 80.4721 58.7605 79.2727 59.2126 78.2115C59.6648 76.9179 60.0227 75.9885 60.2802 75.4359C60.5376 74.8833 60.7825 74.5317 61.0149 74.3935C61.1091 74.3307 61.2535 74.2993 61.4607 74.2993C61.7559 74.2993 61.9756 74.3621 62.1138 74.4877C62.1452 74.5066 62.2457 74.5882 62.4215 74.7452C62.591 74.9022 62.6664 75.078 62.6538 75.2852C62.5157 75.7688 62.1326 76.786 61.5047 78.3308C60.883 79.8756 60.3995 81.0247 60.0541 81.772C59.9913 81.8788 59.8657 82.0923 59.6773 82.4062C59.6459 82.4502 59.5831 82.5695 59.4827 82.7453C59.3822 82.9212 59.3319 83.0593 59.3319 83.1535C59.3319 83.3105 58.9238 84.1268 58.1012 85.6025C57.2848 87.0782 56.6757 88.0641 56.2864 88.5602C55.9284 89.0123 55.5265 89.4079 55.0933 89.747C54.6537 90.0798 54.2581 90.3436 53.9001 90.532C53.5422 90.7204 53.3036 90.8145 53.178 90.8145C52.977 90.8334 52.7887 90.7894 52.6317 90.6827H52.6128V90.6764Z" fill="#838281" stroke="#838281" stroke-width="0.93"/>
<path id="Vector_7" d="M61.6366 87.9953C61.4042 87.7315 61.2849 87.4238 61.2849 87.0784C61.2849 86.7017 61.5173 85.7472 61.9882 84.2024C62.0636 83.7942 62.2394 83.273 62.5031 82.6325C62.5973 82.3688 62.6539 82.2118 62.6664 82.1616C62.949 81.2259 63.3258 80.0768 63.8156 78.7204L64.0291 78.1615C64.5754 76.6795 64.9019 75.769 65.0087 75.4424L65.3855 74.4126C65.3855 74.287 65.4734 74.1677 65.6555 74.0484C65.8376 73.9291 65.9883 73.8726 66.1139 73.8726C66.3651 73.8726 66.6037 74.0358 66.8423 74.3624C67.0747 74.6889 67.2002 75.0343 67.2128 75.3922C67.2128 75.5806 67.1751 75.7501 67.0935 75.9071C66.7356 76.6921 66.2897 77.8978 65.7622 79.5367C65.5299 80.2275 65.2913 80.8743 65.0589 81.4897C64.8266 82.105 64.6382 82.5446 64.5 82.8146L64.2426 83.3296L63.916 84.5666C63.916 84.6106 63.9035 84.6545 63.8909 84.6859C63.8721 84.7173 63.8658 84.7425 63.8658 84.755C63.8658 84.799 63.8658 84.8241 63.8909 84.8241L64.2865 84.4222C64.7387 83.9701 65.2787 83.5117 65.9004 83.0407C66.4153 82.6828 66.6853 82.4755 66.6979 82.4316C66.7104 82.3876 66.7732 82.3123 66.8863 82.2181L67.1186 82.0297C67.6147 81.6718 68.1547 81.4897 68.7325 81.4897C68.902 81.4897 69.1092 81.5776 69.3416 81.7471C69.5739 81.9167 69.7749 82.1553 69.9381 82.4567C70.1014 82.7644 70.183 83.0847 70.183 83.43V83.7817C70.183 84.171 70.1077 84.6797 69.957 85.3139C69.8125 85.9481 69.7246 86.3123 69.7121 86.4003C69.7937 86.4003 69.9067 86.3877 70.0637 86.3563C70.2961 86.3563 70.4656 86.3814 70.5661 86.4254C70.6666 86.4693 70.7545 86.5321 70.8361 86.6138C70.9115 86.6891 70.9805 86.7393 71.0433 86.7519C71.0747 86.7833 71.0873 86.8273 71.0873 86.8901C71.0873 87.248 70.8926 87.562 70.5033 87.8257C70.114 88.0957 69.7372 88.2402 69.3792 88.2716C68.9397 88.2716 68.5943 88.1083 68.3243 87.7755C68.0605 87.4489 67.9224 87.047 67.9224 86.5824C67.9224 86.394 67.935 86.2056 67.9475 86.0235C67.9663 85.8351 67.9789 85.6718 67.9915 85.5337C68.0354 85.2197 68.0605 84.9685 68.0605 84.7801C68.0605 84.5792 68.0417 84.441 68.004 84.372C67.9663 84.3029 67.8973 84.2652 67.8031 84.2652C67.4954 84.2652 66.9491 84.5478 66.1767 85.1192C65.4043 85.6907 64.6193 86.4254 63.8281 87.3296C63.3258 88.0643 62.8548 88.4286 62.4027 88.4286C62.1201 88.3783 61.8626 88.2276 61.6303 87.9576V87.9953H61.6366Z" fill="#838281" stroke="#838281" stroke-width="0.93"/>
<path id="Vector_8" d="M72.9963 88.4911C72.7765 88.3341 72.6697 88.2399 72.6697 88.2085C72.6697 88.1457 72.6383 88.0578 72.563 87.9385C72.4939 87.8192 72.4311 87.7124 72.3683 87.6245C72.2427 87.4989 72.3306 87.0971 72.6258 86.4063C72.9209 85.7218 73.3228 84.9118 73.8189 83.9698C73.9131 83.8756 74.0387 83.7124 74.1831 83.48C74.3338 83.2477 74.428 83.1158 74.4782 83.0844C74.4782 83.0216 74.5034 82.9651 74.5473 82.9086C74.5913 82.8521 74.6478 82.827 74.7106 82.827L74.899 82.4502C74.9618 82.312 75.2632 81.9729 75.8158 81.4455C76.3621 80.9117 76.7891 80.5538 77.1031 80.3654C77.3982 80.1644 77.7185 80.064 78.0639 80.064C78.4406 80.064 78.7609 80.1707 79.0246 80.3905L79.6589 80.9305C80.1236 81.3199 80.3936 81.5459 80.4501 81.6087L81.3167 82.3811L80.9211 83.5491C80.7829 83.9698 80.7138 84.3717 80.7138 84.7422C80.7138 85.3388 80.8771 85.8914 81.2036 86.4063C81.279 86.5759 81.3857 86.714 81.5176 86.8082C81.6495 86.9024 81.8253 86.9652 82.0451 86.9966C82.3905 87.0594 82.56 87.2289 82.56 87.5115C82.56 87.8569 82.4972 88.1143 82.3716 88.2839C82.246 88.4534 82.0953 88.5665 81.9258 88.6104C81.6746 88.6418 81.505 88.6544 81.4109 88.6544C80.9587 88.6544 80.5443 88.5413 80.1675 88.3027C79.797 88.0704 79.4642 87.6685 79.1879 87.1096C79.1251 87.0154 79.0435 86.8459 78.943 86.5947C78.8425 86.3435 78.786 86.174 78.7672 86.0798C78.6604 86.2368 78.4783 86.4377 78.2271 86.6889C76.6196 88.3153 75.3197 89.1253 74.3213 89.1253C73.9759 89.1253 73.6745 89.0374 73.4044 88.8679C73.3605 88.7737 73.2223 88.6481 73.0088 88.4974H72.9963V88.4911ZM76.136 86.0735C76.2114 86.0107 76.2993 85.9353 76.3935 85.8537C76.4877 85.7721 76.5882 85.6779 76.6949 85.5837C77.1345 85.2257 77.4736 84.9243 77.7122 84.6857C77.9508 84.4471 78.202 84.152 78.4532 83.8066L78.9681 82.9651C78.8111 82.626 78.673 82.3937 78.5474 82.2744C78.4218 82.1551 78.2962 82.0985 78.1706 82.0985C77.8566 82.0985 77.4673 82.3748 77.0026 82.9274C76.5317 83.48 75.9728 84.3215 75.3134 85.4455C75.1439 85.7281 75.0057 86.017 74.8927 86.3247C74.7859 86.6261 74.7106 86.827 74.6855 86.9212C74.9366 86.9526 75.4202 86.6763 76.136 86.0798V86.0735Z" fill="#838281" stroke="#838281" stroke-width="0.93"/>
<path id="Vector_9" d="M84.3246 88.78C84.0169 88.4283 83.8222 88.1269 83.7406 87.8757C83.7406 87.8443 83.7218 87.8067 83.6904 87.769C83.659 87.7313 83.6338 87.6999 83.6213 87.6874C83.5585 87.6434 83.5271 87.3859 83.5271 86.915C83.5271 86.5445 83.5459 86.1489 83.5836 85.747C83.6213 85.3451 83.6778 85.0123 83.7406 84.7674L84.1613 83.524L84.4879 82.5884L85.1221 81.232L84.1864 80.9745C84.0797 80.9557 83.9855 80.8992 83.9164 80.8113C83.8474 80.7171 83.816 80.6291 83.816 80.5538C83.816 80.4282 83.8787 80.2461 84.0106 80.0137C84.1425 79.7814 84.2492 79.6621 84.3246 79.6621C84.3748 79.6809 84.5004 79.6872 84.7014 79.6872C85.1661 79.6872 85.5177 79.6621 85.7563 79.6181C85.9133 79.5553 86.0201 79.436 86.0829 79.2476C86.1582 79.0781 86.2399 78.9337 86.3152 78.8144C86.3968 78.695 86.4722 78.5695 86.5538 78.425C86.5978 78.3308 86.6732 78.1864 86.7736 77.9917C86.8741 77.7971 87.006 77.571 87.163 77.3198C87.1944 77.2696 87.2634 77.1628 87.3702 76.9807C87.4769 76.7986 87.6151 76.6479 87.7658 76.5223C87.86 76.447 87.9856 76.3779 88.1426 76.3214C88.2995 76.2711 88.4565 76.2397 88.6135 76.2397C88.8961 76.2397 89.1159 76.3151 89.2917 76.4721C89.4299 76.6919 89.4989 76.8551 89.4989 76.9619C89.4989 77.0875 89.4361 77.2507 89.3106 77.4517C89.2164 77.6401 89.0594 77.8913 88.8396 78.199C88.6512 78.4815 88.5131 78.7076 88.4189 78.8772C88.2619 79.0781 88.1865 79.2351 88.1865 79.3481C88.1865 79.4612 88.287 79.5114 88.4942 79.5114C88.714 79.5114 89.0782 79.4674 89.5931 79.367C89.6748 79.3544 89.7815 79.3418 89.9259 79.3418C90.3027 79.3418 90.5665 79.4486 90.7235 79.6684C90.8804 79.8882 90.9558 80.1582 90.9558 80.4847C90.9558 80.7045 90.8867 80.8364 90.736 80.8803C90.5853 80.9243 90.2588 80.9557 89.7376 80.9557C89.2415 81.031 88.7203 81.075 88.1928 81.075C88.0986 81.075 87.9981 81.075 87.8788 81.0876C87.7658 81.1001 87.6402 81.1127 87.5146 81.1441C87.389 81.1755 87.3011 81.2194 87.2446 81.2822C87.1881 81.345 87.1316 81.4455 87.0688 81.5836C87.0248 81.6276 86.9118 81.8097 86.7422 82.1237C86.5224 82.5758 86.3843 82.8458 86.3215 82.94C85.9196 84.1269 85.6056 85.3514 85.3858 86.6198C85.3733 86.714 85.3607 86.8271 85.3607 86.9715C85.3607 87.1724 85.4298 87.3169 85.5617 87.4048C85.6935 87.4927 85.9573 87.5366 86.3466 87.5366C86.7862 87.5366 87.1943 87.4801 87.59 87.3734C88.0609 87.1724 88.4063 86.9966 88.6449 86.8585C88.7831 86.7831 88.9087 86.7077 89.0343 86.6387C89.1473 86.5696 89.2289 86.5194 89.2792 86.488C89.342 86.3624 89.4487 86.3812 89.5931 86.5382C89.7438 86.6952 89.8569 86.871 89.9322 87.0782C89.9322 87.3608 89.8757 87.612 89.769 87.8381C89.6559 88.0641 89.3859 88.3028 88.9463 88.5539C88.444 88.8679 87.9291 89.094 87.4016 89.2321C86.8678 89.3703 86.3717 89.4456 85.9008 89.4456C85.637 89.4456 85.3921 89.4205 85.1723 89.3766C84.9212 89.3263 84.6386 89.1317 84.3309 88.78H84.3246Z" fill="#838281" stroke="#838281" stroke-width="0.93"/>
<path id="Vector_10" d="M94.6166 89.7032C94.6166 89.7032 94.4157 89.6279 94.0201 89.4709C93.6245 89.3139 93.2854 89.1255 93.0153 88.8995C92.739 88.6734 92.6072 88.4662 92.6072 88.2778C92.6072 88.0894 92.6888 87.9701 92.8646 87.9261L92.984 87.8319C92.984 87.8319 93.0781 87.8068 93.1723 87.8068C93.2351 87.7943 93.3105 87.7943 93.4047 87.8194C93.4989 87.8445 93.5805 87.8508 93.637 87.8508C93.7501 87.8822 93.9133 87.9136 94.1331 87.945L94.7422 88.014C95.0499 88.014 95.3451 87.9826 95.6151 87.9198C95.8914 87.857 96.0233 87.788 96.0233 87.7063C96.0233 87.6624 95.9605 87.5807 95.8411 87.474C95.7155 87.3672 95.5774 87.3107 95.4392 87.3107C95.4392 87.2479 95.2006 87.0407 94.7171 86.6765C94.4534 86.4755 94.1959 86.2746 93.9573 86.0674C93.7187 85.8664 93.5931 85.7157 93.5931 85.6215L93.6182 85.5776V85.4645C93.5114 85.4645 93.4047 85.3138 93.3105 85.0187C93.2163 84.7236 93.1723 84.4347 93.1723 84.1521C93.1723 83.6246 93.4047 83.0344 93.8756 82.4001C94.3466 81.7596 94.9243 81.1819 95.6214 80.667C96.3184 80.152 96.9777 79.8004 97.6057 79.612C97.838 79.5052 98.1834 79.4487 98.6355 79.4487C98.9307 79.4487 99.1316 79.4801 99.2447 79.5429L99.4268 79.499C99.6152 79.499 99.8601 79.656 100.155 79.9637C100.45 80.2776 100.639 80.5288 100.72 80.7109C100.72 81.2258 100.702 81.6403 100.67 81.9543C100.639 82.2682 100.563 82.4252 100.438 82.4252C100.419 82.4252 100.4 82.4315 100.369 82.4504C100.337 82.4692 100.325 82.5069 100.325 82.5697C100.325 82.7895 100.136 83.0281 99.7533 83.2981C99.3703 83.5618 99.0249 83.6937 98.7109 83.6937L98.6167 83.6686C98.5225 83.656 98.3844 83.5618 98.2085 83.3923C98.0264 83.2165 97.9385 83.0469 97.9385 82.8774C97.9385 82.8334 98.0327 82.7078 98.2211 82.5006C98.4095 82.2996 98.5665 82.0987 98.6983 81.904C98.8302 81.7094 98.8993 81.5021 98.8993 81.2824C98.8993 81.207 98.8742 81.1505 98.8176 81.1316C98.7611 81.1065 98.6607 81.094 98.5037 81.094C97.6434 81.4833 97.028 81.8475 96.6512 82.1929C96.601 82.2871 96.5633 82.3562 96.5193 82.4064C96.4817 82.4504 96.4314 82.4755 96.3686 82.4755C96.3686 82.4566 96.3623 82.4504 96.3435 82.4504C96.3121 82.4504 96.2116 82.5383 96.0358 82.7204C95.8663 82.9025 95.703 83.1097 95.5586 83.3421C95.4141 83.5744 95.3199 83.7942 95.2885 83.9951L95.2383 84.0642V84.1835C95.2383 84.1835 95.2132 84.2777 95.2132 84.3719C95.2132 84.51 95.276 84.6545 95.4016 84.8052C95.5272 84.9559 95.7783 85.1631 96.1551 85.4269C96.8584 85.9543 97.3357 86.35 97.5931 86.6074C97.8506 86.8649 98.0139 87.0972 98.0704 87.2982C98.2148 87.5807 98.2839 87.8319 98.2839 88.0454C98.2839 88.5729 98.0013 88.9874 97.455 89.2699C96.8961 89.5588 96.1426 89.7032 95.1943 89.7032H94.6166Z" fill="#838281" stroke="#838281" stroke-width="0.93"/>
<path id="Vector_11" d="M91.86 81.9667C91.86 81.9667 91.816 81.8851 91.7344 81.7281C91.6465 81.5711 91.6214 81.4392 91.659 81.3325C91.6842 81.1253 91.7532 80.8741 91.8663 80.5915L91.9479 80.334C92.0233 80.0515 92.2619 79.6747 92.6763 79.2163C92.6763 79.2037 92.6889 79.1849 92.714 79.1723C92.7391 79.1598 92.7768 79.1472 92.8145 79.1346C92.8584 79.1221 92.9087 79.1095 92.9652 79.0907L93.1536 79.0781C93.3482 79.0781 93.4613 79.1598 93.4927 79.323V79.3733C93.4927 79.4486 93.4487 79.5365 93.3734 79.637L93.2289 79.8568C93.1975 79.907 93.1222 80.0263 93.0091 80.2084C92.8961 80.3968 92.8208 80.5413 92.7894 80.648C92.7894 80.6794 92.7894 80.7108 92.7768 80.7359C92.915 80.7108 93.0531 80.761 93.2038 80.8804C93.3043 80.9683 93.3482 81.0939 93.3482 81.2571C93.3482 81.3953 93.3043 81.5334 93.2226 81.6779C93.141 81.8223 93.0343 81.9416 92.8961 82.0358C92.7328 82.13 92.5821 82.1802 92.444 82.1802C92.3498 82.1802 92.2179 82.1551 92.0672 82.0923C91.9291 82.0044 91.86 81.9604 91.86 81.9604V81.9667Z" fill="#838281" stroke="#838281" stroke-width="0.93"/>
</g>
</g>
<g id="Group_4">
<path id="Vector_12" d="M61.5612 104.322C61.3791 104.284 61.0903 104.278 60.6884 104.297C60.456 104.328 60.2174 104.297 59.9851 104.184C59.7464 104.071 59.646 103.945 59.6962 103.801C59.7088 103.656 59.872 103.512 60.186 103.361C60.5063 103.21 60.883 103.129 61.3289 103.116L62.0259 103.097L62.1955 102.765C62.2269 102.702 62.252 102.633 62.2645 102.557C62.2771 102.488 62.2897 102.419 62.3148 102.369L62.4655 101.766L62.7167 100.969C63.0495 99.9576 63.263 99.248 63.3697 98.8398C63.4263 98.708 63.5142 98.4442 63.6335 98.0424C63.7528 97.6467 63.8533 97.3139 63.9161 97.0627C64.4247 95.4991 64.6382 94.7079 64.5503 94.6828C64.4373 94.6702 64.1421 94.6954 63.6649 94.7456C63.1876 94.7958 62.9239 94.8398 62.8674 94.8712C62.8109 94.9465 62.7167 94.9403 62.5848 94.8398C62.4529 94.7393 62.3713 94.6263 62.3336 94.507C62.3211 94.4756 62.3148 94.4191 62.3148 94.3437C62.3148 94.1867 62.3525 94.0862 62.4341 94.0423C62.5471 93.9418 62.8297 93.8288 63.2944 93.7095C63.7528 93.5901 64.1861 93.5022 64.5817 93.4457C64.7701 93.4206 64.9647 93.3829 65.1531 93.3201C65.3478 93.2573 65.4922 93.182 65.5927 93.0941C65.825 93.0187 66.0197 92.981 66.1767 92.9936C66.2521 93.0501 66.4404 93.0752 66.7419 93.0752C66.9993 93.0752 67.194 93.0752 67.3259 93.0564C67.6147 93.0313 67.8157 93.025 67.9287 93.025C68.5943 93.025 68.9962 93.182 69.1281 93.4897C69.1532 93.6027 69.1595 93.6843 69.1595 93.7409C69.1595 93.8853 69.1155 94.0046 69.0339 94.0925C68.9523 94.1804 68.8392 94.2181 68.6948 94.2055C68.4939 94.2621 68.1234 94.2935 67.5833 94.306C66.8486 94.3751 66.4593 94.4504 66.4028 94.5384C66.3463 94.5949 66.3023 94.6451 66.2772 94.6891C66.2521 94.733 66.2207 94.777 66.183 94.8272C66.1955 94.9277 66.0951 95.2856 65.8816 95.9073L65.5801 96.7927C65.2724 97.7598 65.0715 98.35 64.9773 98.5698C64.902 98.7582 64.8454 98.9529 64.814 99.1475C64.7261 99.449 64.6445 99.7315 64.5754 100.008C64.5001 100.278 64.4247 100.535 64.3494 100.78L63.7026 103.091L64.701 103.009C65.3541 102.94 65.7497 102.909 65.8816 102.909C65.9946 102.909 66.0637 102.922 66.1013 102.94C66.1327 102.959 66.1579 102.997 66.1641 103.047C66.1767 103.097 66.1893 103.135 66.1955 103.154C66.296 103.286 66.3462 103.411 66.3462 103.537C66.3462 103.738 66.2144 103.895 65.9444 104.02C65.6806 104.14 65.3101 104.196 64.8454 104.184C64.3494 104.203 63.9412 104.228 63.6335 104.24C63.3258 104.259 63.1311 104.278 63.0495 104.316C62.9741 104.347 62.9365 104.404 62.9365 104.479C62.949 104.579 62.9113 104.661 62.836 104.718C62.7606 104.774 62.6602 104.805 62.5346 104.805C62.3273 104.805 62.1327 104.718 61.9694 104.542C61.8878 104.435 61.7622 104.353 61.5801 104.316H61.5612V104.322Z" fill="black"/>
<path id="Vector_13" d="M71.8849 103.43V102.281C71.8849 102.067 71.9037 101.86 71.9351 101.666C71.9602 101.421 71.9665 101.251 71.9665 101.151V100.887C71.9351 100.667 71.8598 100.554 71.7467 100.554C71.5458 100.554 71.1753 100.749 70.6415 101.132C70.1015 101.515 69.5426 101.973 68.9523 102.501C68.7765 102.689 68.6258 102.865 68.5002 103.035C68.3872 103.179 68.3055 103.267 68.249 103.298C68.1925 103.336 68.1046 103.349 67.9853 103.349C67.8283 103.323 67.6525 103.21 67.4515 102.997C67.2506 102.783 67.1187 102.595 67.0559 102.432C67.0559 102.118 67.1124 101.823 67.2255 101.54C67.3322 101.257 67.5018 100.899 67.7215 100.466C67.822 100.133 67.9476 99.8006 68.1046 99.4677C68.2679 99.0784 68.3872 98.7833 68.4625 98.576C68.5379 98.3688 68.5818 98.1553 68.607 97.9355C68.607 97.9355 68.6007 97.9313 68.5881 97.923C68.5881 97.879 68.607 97.8413 68.6384 97.8099C68.6698 97.7723 68.7137 97.7597 68.7577 97.7597C68.7828 97.7283 68.8456 97.7095 68.9586 97.7095C69.2475 97.7095 69.4987 97.7911 69.7059 97.9418C69.9194 98.0988 70.0199 98.3374 70.0199 98.6577C70.0199 98.8272 69.9885 98.9842 69.9257 99.1286C69.8629 99.2794 69.7498 99.5243 69.5866 99.8696L69.4045 100.234C69.3731 100.303 69.3228 100.397 69.2537 100.529C69.1847 100.655 69.1533 100.736 69.1533 100.768C69.4296 100.579 69.7561 100.328 70.1329 100.02C70.6855 99.5745 71.1439 99.2354 71.4956 98.9905C71.8535 98.7456 72.1109 98.6263 72.2805 98.6263C72.4249 98.6263 72.6259 98.7079 72.8896 98.8649C73.1471 99.0282 73.2978 99.1726 73.348 99.3045C73.348 99.3798 73.3417 99.4991 73.3229 99.6561C73.3041 99.8131 73.2915 99.9513 73.2852 100.071L73.3041 100.585C73.3166 100.673 73.3229 100.805 73.3229 100.981C73.3229 101.339 73.3041 101.584 73.2601 101.728C73.2727 101.741 73.2852 101.753 73.2915 101.779C73.3041 101.804 73.3103 101.816 73.3103 101.829L73.2915 101.86C73.3041 101.973 73.3606 102.149 73.4736 102.394C73.5866 102.639 73.6369 102.771 73.6369 102.796C73.6369 102.921 73.5615 103.053 73.3983 103.204C73.235 103.355 73.0843 103.443 72.9398 103.462C72.2428 103.443 71.8912 103.43 71.8912 103.43H71.8849Z" fill="black"/>
<path id="Vector_14" d="M79.0184 104.077C78.8865 103.977 78.786 103.864 78.717 103.725C78.6604 103.568 78.6228 103.418 78.5976 103.267C78.5788 103.116 78.56 102.915 78.5474 102.664L78.5286 102.099L77.8441 102.714C77.1471 103.368 76.494 103.694 75.8974 103.694C75.7216 103.663 75.4955 103.512 75.2255 103.242C74.9555 102.978 74.7797 102.752 74.7043 102.564C74.6604 102.476 74.6353 102.338 74.6353 102.149C74.6353 101.729 74.7483 101.22 74.9681 100.63C75.1879 100.039 75.4642 99.5558 75.797 99.1916C76.0419 98.8274 76.337 98.5448 76.6761 98.3564C77.0152 98.168 77.3669 98.0738 77.7248 98.0738C78.0576 98.0738 78.3527 98.1429 78.6039 98.2874C78.7609 98.3627 78.8865 98.4004 78.987 98.4004C79.1 98.4004 79.1691 98.3313 79.2068 98.1869C79.2193 98.1304 79.2821 97.9106 79.4077 97.5213L79.5898 96.9875C79.8347 96.2591 80.0419 95.6688 80.224 95.2229C80.3999 94.7771 80.6197 94.2936 80.8708 93.7598C80.9839 93.5275 81.0969 93.3516 81.2225 93.2449C81.3418 93.1318 81.4548 93.0816 81.5553 93.0942C81.6997 93.0942 81.8567 93.1444 82.0326 93.2386C82.2021 93.3328 82.3214 93.4521 82.3716 93.5965C82.403 93.6719 82.4219 93.7661 82.4219 93.8791C82.4219 94.0047 82.3905 94.1303 82.3214 94.2622C82.0326 94.7645 81.6746 95.5746 81.2539 96.7112C80.8332 97.8415 80.5066 98.8211 80.2743 99.6563C80.1864 99.9577 80.1236 100.372 80.0796 100.906C80.0419 101.44 80.0231 101.961 80.0231 102.47C80.0231 102.978 80.0419 103.261 80.0733 103.386C80.0985 103.449 80.1047 103.537 80.1047 103.65C80.1047 103.838 80.0419 103.97 79.9163 104.039C79.7908 104.115 79.6275 104.159 79.4265 104.178C79.2821 104.215 79.144 104.178 79.0121 104.077H79.0184ZM77.5427 101.666C77.8755 101.421 78.1141 101.207 78.2648 101.019C78.4155 100.831 78.5349 100.592 78.6228 100.303C78.6479 100.247 78.6542 100.171 78.6542 100.071C78.6542 99.8698 78.56 99.6877 78.3716 99.5244C78.2585 99.4365 78.133 99.3926 77.9885 99.3926C77.7562 99.3926 77.5113 99.5181 77.2538 99.7568C76.965 100.021 76.7326 100.322 76.5568 100.648C76.381 100.975 76.2303 101.421 76.1047 101.986C76.0795 102.061 76.0921 102.124 76.1361 102.174C76.18 102.225 76.2554 102.25 76.3558 102.25C76.4312 102.25 76.5442 102.225 76.6887 102.168C76.9461 102.068 77.2224 101.904 77.5364 101.666H77.5427Z" fill="black"/>
<path id="Vector_15" d="M82.3843 103.681C82.3089 103.637 82.1959 103.556 82.0515 103.43C81.8254 103.198 81.6559 102.959 81.5366 102.702C81.411 102.451 81.367 102.231 81.4047 102.042C81.4361 101.967 81.4486 101.886 81.4486 101.81C81.4486 101.735 81.4424 101.685 81.4424 101.659C81.3984 101.615 81.3733 101.584 81.3733 101.572C81.3733 101.559 81.3859 101.54 81.4047 101.521C81.4298 101.509 81.4424 101.49 81.4549 101.465C81.524 101.465 81.5428 101.402 81.524 101.283C81.4989 101.195 81.5428 101 81.6433 100.699C81.7438 100.404 81.8694 100.121 82.0264 99.8698C82.1457 99.6688 82.3278 99.4176 82.5664 99.1225C82.805 98.8211 83.0185 98.595 83.2069 98.4443C83.7595 97.9671 84.2619 97.6782 84.7015 97.5777C84.9275 97.5212 85.141 97.4961 85.3545 97.4961C85.6748 97.4961 85.926 97.584 86.1018 97.7598C86.3467 97.8603 86.5225 98.0047 86.6356 98.1931C86.7486 98.3815 86.8177 98.6327 86.8491 98.9404C86.8616 99.0095 86.8679 99.1162 86.8679 99.2732C86.8679 100.096 86.5539 100.95 85.9322 101.835C85.6748 102.199 85.4236 102.495 85.1661 102.721C84.9087 102.94 84.601 103.167 84.2368 103.386C84.0358 103.518 83.8286 103.606 83.6025 103.65C83.3827 103.694 83.0813 103.725 82.7046 103.751C82.5727 103.751 82.4659 103.725 82.3906 103.681H82.3843ZM84.8522 101.145C84.9463 100.95 85.0845 100.611 85.2603 100.121C85.3294 100.02 85.3608 99.8195 85.3608 99.5244C85.3608 99.2544 85.3231 99.1099 85.2415 99.0723C85.185 99.0283 85.1159 99.0095 85.0405 99.0095C84.9401 99.0095 84.7768 99.0848 84.557 99.2418C84.1677 99.5746 83.8474 99.92 83.5837 100.284C83.3262 100.642 83.1441 101.057 83.0437 101.521C83.0311 101.565 83.0248 101.634 83.0248 101.722C83.0248 102.099 83.1567 102.287 83.4204 102.287C83.6842 102.287 83.9981 102.099 84.3875 101.722C84.5947 101.534 84.7517 101.339 84.8459 101.151L84.8522 101.145Z" fill="black"/>
<path id="Vector_16" d="M92.2306 103.43V102.281C92.2306 102.067 92.2494 101.86 92.2808 101.666C92.3059 101.421 92.3122 101.251 92.3122 101.151V100.887C92.2808 100.667 92.2055 100.554 92.0924 100.554C91.8915 100.554 91.5273 100.749 90.9872 101.132C90.4472 101.515 89.882 101.973 89.298 102.501C89.1222 102.689 88.9715 102.865 88.8522 103.035C88.7392 103.179 88.6575 103.267 88.601 103.298C88.5445 103.336 88.4566 103.349 88.3373 103.349C88.1803 103.323 88.0044 103.21 87.8035 102.997C87.6026 102.79 87.4707 102.595 87.4016 102.432C87.4016 102.118 87.4581 101.823 87.5712 101.54C87.6842 101.257 87.8475 100.899 88.0672 100.466C88.1677 100.133 88.2933 99.8006 88.4503 99.4677C88.6198 99.0784 88.7329 98.7833 88.8082 98.576C88.8773 98.3688 88.9275 98.1553 88.9464 97.9355C88.9464 97.923 88.9401 97.923 88.9275 97.923C88.9275 97.879 88.9464 97.8413 88.9778 97.8099C89.0092 97.7723 89.0531 97.7597 89.0908 97.7597C89.1159 97.7283 89.1787 97.7095 89.2918 97.7095C89.5806 97.7095 89.8318 97.7911 90.039 97.9418C90.2525 98.0988 90.353 98.3374 90.353 98.6577C90.353 98.8272 90.3216 98.9842 90.2588 99.1286C90.196 99.2794 90.083 99.5243 89.9197 99.8696L89.7376 100.234C89.7062 100.303 89.656 100.397 89.5869 100.529C89.5241 100.655 89.4864 100.736 89.4864 100.768C89.7627 100.579 90.0893 100.328 90.466 100.02C91.0186 99.5745 91.477 99.2354 91.8287 98.9905C92.1803 98.7456 92.4441 98.6263 92.6074 98.6263C92.7518 98.6263 92.9527 98.7079 93.2165 98.8649C93.4739 99.0282 93.6309 99.1726 93.6749 99.3045C93.6749 99.3798 93.6623 99.4991 93.6498 99.6561C93.6372 99.8131 93.6184 99.9513 93.6121 100.071L93.6246 100.585C93.6372 100.673 93.6435 100.805 93.6435 100.981C93.6435 101.339 93.6184 101.584 93.5744 101.728C93.587 101.741 93.5995 101.753 93.6058 101.779C93.6184 101.804 93.6184 101.816 93.6184 101.829L93.6058 101.86C93.6184 101.973 93.6812 102.149 93.7879 102.394C93.9009 102.639 93.9574 102.771 93.9574 102.796C93.9574 102.921 93.8758 103.053 93.7188 103.204C93.5618 103.355 93.4049 103.443 93.2604 103.462C92.5634 103.443 92.2117 103.43 92.2117 103.43H92.2306Z" fill="black"/>
<path id="Vector_17" d="M95.7407 103.33C95.3514 102.972 95.1567 102.469 95.1567 101.816C95.1567 101.559 95.1756 101.276 95.207 100.969C95.2321 100.699 95.3388 100.334 95.5335 99.8697C95.7282 99.405 95.9919 98.9466 96.331 98.507C96.6701 98.0612 97.0657 97.7346 97.5179 97.5274C97.7251 97.4269 97.9072 97.3579 98.0516 97.3202C98.196 97.2825 98.3593 97.2637 98.5477 97.2637C99.0061 97.2637 99.3703 97.3453 99.6592 97.5148C99.9418 97.6844 100.136 97.8728 100.256 98.0863C100.369 98.2935 100.432 98.4756 100.432 98.6326V98.7645C100.432 98.8964 100.356 99.1413 100.199 99.4992C100.042 99.8508 99.7973 100.19 99.4582 100.498C99.1191 100.805 98.6858 100.981 98.1521 101.013C97.8883 101.013 97.6246 100.987 97.3797 100.937C97.1285 100.887 96.9715 100.862 96.9087 100.862C96.7392 100.862 96.6324 100.918 96.5948 101.044C96.5508 101.17 96.5257 101.37 96.5257 101.659C96.5571 101.973 96.645 102.187 96.7831 102.306C96.9213 102.432 97.1222 102.488 97.3923 102.488C97.5241 102.488 97.6811 102.451 97.8569 102.369C98.0328 102.281 98.2463 102.143 98.4912 101.954C98.623 101.841 98.7298 101.766 98.8052 101.722C98.8805 101.678 98.981 101.653 99.0877 101.653C99.1882 101.653 99.3012 101.722 99.4394 101.854C99.5713 101.986 99.6466 102.111 99.6529 102.237C99.6341 102.369 99.5085 102.57 99.2887 102.834C99.0689 103.097 98.78 103.342 98.4221 103.549C98.0642 103.763 97.6874 103.87 97.273 103.87C96.6387 103.87 96.1301 103.688 95.7407 103.336V103.33ZM98.2902 99.7818C98.4033 99.7315 98.5728 99.5871 98.7989 99.361C99.0249 99.135 99.1443 98.978 99.1568 98.8838C99.1568 98.777 99.1129 98.6828 99.0187 98.6138C98.9245 98.5384 98.7926 98.4945 98.6293 98.4756H98.4472C98.3028 98.4756 98.0956 98.5949 97.8255 98.8336C97.5492 99.0722 97.3169 99.3485 97.116 99.6562C97.1222 99.7127 97.2102 99.7566 97.3671 99.8006C97.5241 99.8383 97.6874 99.8571 97.8632 99.8571C98.0704 99.8571 98.2212 99.8383 98.2965 99.7881H98.2902V99.7818Z" fill="black"/>
<path id="Vector_18" d="M102.046 104.115C102.046 104.115 101.907 104.058 101.619 103.951C101.336 103.838 101.097 103.707 100.903 103.543C100.708 103.386 100.614 103.236 100.614 103.104C100.614 102.972 100.677 102.89 100.796 102.853L100.878 102.784C100.878 102.784 100.94 102.765 101.009 102.765C101.053 102.758 101.11 102.758 101.173 102.771C101.242 102.79 101.298 102.796 101.342 102.796C101.418 102.821 101.537 102.84 101.688 102.865L102.121 102.915C102.341 102.915 102.548 102.897 102.749 102.846C102.943 102.802 103.038 102.752 103.038 102.696C103.038 102.664 102.994 102.608 102.9 102.532C102.812 102.457 102.717 102.413 102.617 102.413C102.617 102.369 102.447 102.218 102.102 101.961C101.914 101.816 101.732 101.672 101.562 101.534C101.392 101.389 101.305 101.283 101.305 101.214L101.323 101.182V101.101C101.242 101.101 101.173 101 101.11 100.787C101.041 100.579 101.009 100.372 101.009 100.171C101.009 99.7944 101.173 99.3737 101.505 98.9216C101.838 98.4695 102.253 98.055 102.749 97.6908C103.245 97.3266 103.71 97.0754 104.155 96.9435C104.325 96.8682 104.564 96.8242 104.89 96.8242C105.104 96.8242 105.242 96.8493 105.323 96.8933L105.455 96.8619C105.587 96.8619 105.763 96.9749 105.977 97.1947C106.184 97.4208 106.316 97.5966 106.372 97.7285C106.372 98.0927 106.36 98.3878 106.341 98.6076C106.316 98.8274 106.265 98.9404 106.171 98.9404C106.159 98.9404 106.146 98.9467 106.121 98.9593C106.096 98.9718 106.09 98.9969 106.09 99.0409C106.09 99.1979 105.951 99.3674 105.681 99.5558C105.411 99.7442 105.166 99.8384 104.94 99.8384L104.871 99.8196C104.802 99.807 104.708 99.7442 104.582 99.6186C104.457 99.493 104.394 99.3737 104.394 99.2544C104.394 99.223 104.457 99.1288 104.589 98.9907C104.721 98.8462 104.834 98.7018 104.928 98.5637C105.022 98.4255 105.072 98.2748 105.072 98.1241C105.072 98.0676 105.053 98.0299 105.016 98.0173C104.978 97.9985 104.903 97.9922 104.79 97.9922C104.181 98.2685 103.741 98.5323 103.477 98.7772C103.446 98.84 103.414 98.8902 103.389 98.9279C103.364 98.9593 103.327 98.9781 103.283 98.9781C103.283 98.9655 103.283 98.9593 103.264 98.9593C103.245 98.9593 103.17 99.0221 103.05 99.1539C102.925 99.2795 102.818 99.424 102.711 99.5935C102.604 99.7568 102.542 99.9138 102.523 100.058L102.491 100.108V100.19C102.491 100.19 102.473 100.259 102.473 100.322C102.473 100.422 102.516 100.523 102.604 100.63C102.692 100.736 102.868 100.881 103.138 101.075C103.634 101.452 103.98 101.729 104.162 101.911C104.344 102.093 104.457 102.256 104.501 102.4C104.601 102.601 104.652 102.777 104.652 102.934C104.652 103.311 104.457 103.6 104.061 103.807C103.666 104.014 103.132 104.115 102.454 104.115H102.046Z" fill="black"/>
<path id="Vector_19" d="M106.422 102.746C106.422 102.532 106.447 102.375 106.504 102.262C106.504 102.206 106.516 102.143 106.535 102.061C106.56 101.986 106.567 101.936 106.567 101.911C106.554 101.842 106.598 101.659 106.699 101.358C106.83 101.063 107 100.598 107.207 99.9765C107.414 99.3548 107.553 98.9152 107.628 98.6452C107.628 98.5887 107.653 98.5385 107.697 98.5008C107.741 98.4631 107.804 98.438 107.898 98.4254C108.024 98.3815 108.174 98.4317 108.363 98.5824C108.551 98.7331 108.708 98.9027 108.827 99.0911C108.896 99.1601 108.928 99.2481 108.928 99.3548C108.928 99.5244 108.852 99.7567 108.708 100.052C108.652 100.177 108.601 100.328 108.551 100.498C108.501 100.674 108.463 100.843 108.425 101C108.294 101.301 108.187 101.578 108.105 101.829C108.074 101.973 108.055 102.08 108.042 102.162C107.967 102.57 107.892 102.84 107.829 102.959C107.76 103.236 107.672 103.443 107.546 103.587C107.427 103.725 107.283 103.794 107.132 103.794C106.943 103.794 106.78 103.713 106.648 103.562C106.491 103.405 106.416 103.129 106.416 102.727V102.746H106.422ZM108.187 96.6106C108.118 96.4913 108.08 96.372 108.068 96.259C108.055 96.1522 108.068 96.0832 108.099 96.058C108.162 95.9827 108.231 95.8759 108.3 95.7378C108.369 95.6059 108.413 95.5117 108.451 95.4552C108.538 95.2543 108.608 95.1098 108.664 95.0219C108.739 94.8649 108.815 94.7833 108.884 94.7707C108.972 94.7268 109.041 94.7017 109.097 94.7017C109.242 94.7017 109.405 94.7519 109.575 94.8524C109.75 94.9528 109.876 95.0722 109.964 95.204C110.039 95.3799 110.083 95.5368 110.083 95.6687C110.083 95.9325 109.958 96.2276 109.7 96.5478C109.587 96.6923 109.455 96.8053 109.298 96.8807C109.141 96.956 108.991 97 108.834 97C108.677 97 108.551 96.9686 108.451 96.8995C108.338 96.8241 108.25 96.7237 108.181 96.5981V96.6106H108.187Z" fill="black"/>
<path id="Vector_20" d="M110.008 103.223C109.845 103.11 109.763 103.041 109.763 103.01C109.763 102.966 109.738 102.897 109.688 102.809C109.638 102.721 109.587 102.645 109.537 102.57C109.449 102.476 109.512 102.168 109.732 101.653C109.958 101.138 110.253 100.529 110.63 99.8196C110.699 99.7505 110.793 99.625 110.9 99.4554C111.013 99.2796 111.088 99.1791 111.12 99.154C111.12 99.11 111.138 99.0661 111.17 99.0221C111.201 98.9844 111.245 98.9593 111.295 98.9593L111.44 98.6767C111.484 98.57 111.716 98.3188 112.124 97.9169C112.532 97.5213 112.853 97.2513 113.091 97.1069C113.317 96.9561 113.556 96.8745 113.813 96.8745C114.096 96.8745 114.335 96.9561 114.536 97.1194L115.013 97.5276C115.365 97.8227 115.559 97.9923 115.609 98.0362L116.262 98.6139L115.961 99.4931C115.854 99.8071 115.804 100.108 115.804 100.391C115.804 100.837 115.93 101.251 116.175 101.641C116.231 101.766 116.313 101.873 116.407 101.936C116.507 102.005 116.639 102.055 116.803 102.08C117.06 102.124 117.192 102.256 117.192 102.47C117.192 102.727 117.142 102.922 117.047 103.047C116.953 103.179 116.84 103.261 116.715 103.298C116.526 103.324 116.394 103.33 116.325 103.33C115.986 103.33 115.672 103.242 115.396 103.066C115.113 102.89 114.868 102.595 114.655 102.168C114.605 102.099 114.548 101.967 114.473 101.779C114.397 101.59 114.347 101.459 114.341 101.39C114.259 101.503 114.121 101.66 113.939 101.842C112.727 103.06 111.754 103.675 111 103.675C110.743 103.675 110.51 103.612 110.309 103.481C110.278 103.405 110.178 103.317 110.008 103.198V103.223ZM112.369 101.408C112.432 101.358 112.495 101.308 112.564 101.239C112.633 101.176 112.708 101.107 112.79 101.038C113.116 100.768 113.374 100.542 113.556 100.36C113.738 100.178 113.92 99.9578 114.109 99.7003L114.498 99.0661C114.379 98.8086 114.278 98.6328 114.178 98.5511C114.083 98.4632 113.989 98.4193 113.895 98.4193C113.663 98.4193 113.368 98.6265 113.016 99.0472C112.664 99.4617 112.244 100.09 111.747 100.937C111.616 101.151 111.515 101.371 111.434 101.597C111.352 101.829 111.295 101.973 111.27 102.049C111.459 102.074 111.823 101.86 112.363 101.421V101.408H112.369Z" fill="black"/>
</g>
</g>
</svg>
