<svg width="25" height="25" viewBox="0 0 25 25" fill="none" xmlns="http://www.w3.org/2000/svg">
<g clip-path="url(#clip0_608_671)">
<path d="M3.38868 9.31339C3.38863 7.82721 3.75663 6.36415 4.4598 5.05484C5.16297 3.74554 6.17944 2.63074 7.41844 1.81C8.65744 0.989257 10.0804 0.488114 11.5603 0.351319C13.0401 0.214523 14.5309 0.446333 15.8993 1.02605C17.2678 1.60577 18.4714 2.51534 19.4026 3.67357C20.3339 4.83179 20.9638 6.20261 21.2362 7.66361C21.5086 9.12462 21.415 10.6303 20.9636 12.0463C20.5123 13.4623 19.7173 14.7445 18.6497 15.7784C18.3452 16.0724 18.1112 16.3784 17.9702 16.7069L16.8272 19.3604C16.7692 19.4949 16.6731 19.6094 16.5507 19.6899C16.4284 19.7704 16.2851 19.8134 16.1387 19.8134C16.3376 19.8134 16.5284 19.8924 16.669 20.0331C16.8097 20.1737 16.8887 20.3645 16.8887 20.5634C16.8887 20.7623 16.8097 20.9531 16.669 21.0937C16.5284 21.2344 16.3376 21.3134 16.1387 21.3134C16.3376 21.3134 16.5284 21.3924 16.669 21.5331C16.8097 21.6737 16.8887 21.8645 16.8887 22.0634C16.8887 22.2623 16.8097 22.4531 16.669 22.5937C16.5284 22.7344 16.3376 22.8134 16.1387 22.8134L15.8027 23.4839C15.6782 23.733 15.4868 23.9426 15.25 24.0891C15.0131 24.2356 14.7402 24.3132 14.4617 24.3134H10.3157C10.0372 24.3132 9.76423 24.2356 9.52739 24.0891C9.29055 23.9426 9.09917 23.733 8.97468 23.4839L8.63868 22.8134C8.43977 22.8134 8.249 22.7344 8.10835 22.5937C7.9677 22.4531 7.88868 22.2623 7.88868 22.0634C7.88868 21.8645 7.9677 21.6737 8.10835 21.5331C8.249 21.3924 8.43977 21.3134 8.63868 21.3134C8.43977 21.3134 8.249 21.2344 8.10835 21.0937C7.9677 20.9531 7.88868 20.7623 7.88868 20.5634C7.88868 20.3645 7.9677 20.1737 8.10835 20.0331C8.249 19.8924 8.43977 19.8134 8.63868 19.8134C8.49197 19.8137 8.3484 19.7709 8.22576 19.6904C8.10311 19.6098 8.00678 19.4951 7.94868 19.3604L6.80718 16.7054C6.64254 16.3555 6.41181 16.0407 6.12768 15.7784C5.25984 14.9404 4.56997 13.9359 4.09934 12.825C3.62872 11.7142 3.38701 10.5198 3.38868 9.31339ZM12.3887 1.8134C10.8949 1.81314 9.43512 2.25894 8.19635 3.09366C6.95759 3.92838 5.99629 5.114 5.43567 6.49856C4.87504 7.88311 4.74063 9.40354 5.04966 10.865C5.35868 12.3264 6.09707 13.6623 7.17018 14.7014C7.56468 15.0824 7.94118 15.5474 8.18418 16.1129L9.13368 18.3134H15.6467L16.5947 16.1129C16.8377 15.5474 17.2142 15.0824 17.6087 14.7014C18.6819 13.6622 19.4203 12.3262 19.7293 10.8646C20.0383 9.40304 19.9037 7.88248 19.3429 6.49786C18.7821 5.11324 17.8206 3.92764 16.5816 3.09303C15.3426 2.25843 13.8826 1.81284 12.3887 1.8134Z" fill="#1B1C22"/>
</g>
<defs>
<clipPath id="clip0_608_671">
<rect width="24" height="24" fill="white" transform="translate(0.388672 0.313354)"/>
</clipPath>
</defs>
</svg>
