<svg width="21" height="28" viewBox="0 0 21 28" fill="none" xmlns="http://www.w3.org/2000/svg">
<path d="M10.4841 27.3404C10.4841 27.3404 20.6634 17.6938 20.6634 10.3748C20.6634 7.67507 19.591 5.0859 17.682 3.1769C15.773 1.2679 13.1838 0.195435 10.4841 0.195435C7.78432 0.195435 5.19516 1.2679 3.28615 3.1769C1.37715 5.0859 0.304688 7.67507 0.304688 10.3748C0.304688 17.6938 10.4841 27.3404 10.4841 27.3404ZM10.4841 15.4645C9.13419 15.4645 7.83961 14.9283 6.88511 13.9738C5.9306 13.0193 5.39437 11.7247 5.39437 10.3748C5.39437 9.02493 5.9306 7.73035 6.88511 6.77585C7.83961 5.82135 9.13419 5.28512 10.4841 5.28512C11.8339 5.28512 13.1285 5.82135 14.083 6.77585C15.0375 7.73035 15.5737 9.02493 15.5737 10.3748C15.5737 11.7247 15.0375 13.0193 14.083 13.9738C13.1285 14.9283 11.8339 15.4645 10.4841 15.4645Z" fill="#F25055"/>
</svg>
