<svg width="25" height="25" viewBox="0 0 25 25" fill="none" xmlns="http://www.w3.org/2000/svg">
<g clip-path="url(#clip0_608_657)">
<path d="M12.3896 7.64569C11.1962 7.64569 10.0516 8.1198 9.20767 8.96371C8.36375 9.80762 7.88965 10.9522 7.88965 12.1457C7.88965 13.3392 8.36375 14.4838 9.20767 15.3277C10.0516 16.1716 11.1962 16.6457 12.3896 16.6457C13.5831 16.6457 14.7277 16.1716 15.5716 15.3277C16.4155 14.4838 16.8896 13.3392 16.8896 12.1457C16.8896 10.9522 16.4155 9.80762 15.5716 8.96371C14.7277 8.1198 13.5831 7.64569 12.3896 7.64569ZM9.38965 12.1457C9.38965 11.35 9.70572 10.587 10.2683 10.0244C10.8309 9.46176 11.594 9.14569 12.3896 9.14569C13.1853 9.14569 13.9484 9.46176 14.511 10.0244C15.0736 10.587 15.3896 11.35 15.3896 12.1457C15.3896 12.9413 15.0736 13.7044 14.511 14.267C13.9484 14.8296 13.1853 15.1457 12.3896 15.1457C11.594 15.1457 10.8309 14.8296 10.2683 14.267C9.70572 13.7044 9.38965 12.9413 9.38965 12.1457ZM8.63965 18.1457C8.44074 18.1457 8.24997 18.2247 8.10932 18.3654C7.96867 18.506 7.88965 18.6968 7.88965 18.8957C7.88965 19.0946 7.96867 19.2854 8.10932 19.426C8.24997 19.5667 8.44074 19.6457 8.63965 19.6457H16.1396C16.3386 19.6457 16.5293 19.5667 16.67 19.426C16.8106 19.2854 16.8896 19.0946 16.8896 18.8957C16.8896 18.6968 16.8106 18.506 16.67 18.3654C16.5293 18.2247 16.3386 18.1457 16.1396 18.1457H8.63965Z" fill="#1B1C22"/>
<path d="M5.23765 2.80971C4.71908 2.90387 4.25003 3.17709 3.9123 3.58171C3.57457 3.98633 3.3896 4.49666 3.38965 5.02371V21.4487C3.38965 22.1162 3.67615 22.7057 4.12465 23.1137C4.67515 23.7467 5.48665 24.1457 6.38965 24.1457H18.3896C19.1853 24.1457 19.9484 23.8296 20.511 23.267C21.0736 22.7044 21.3896 21.9414 21.3896 21.1457V6.14571C21.3896 5.61911 21.251 5.10179 20.9877 4.64575C20.7244 4.18971 20.3457 3.81101 19.8896 3.54771V2.84271C19.8899 2.51304 19.8177 2.18735 19.6782 1.88867C19.5386 1.58999 19.3352 1.32562 19.0822 1.11427C18.8292 0.902912 18.5328 0.749734 18.2141 0.665568C17.8953 0.581403 17.562 0.568307 17.2376 0.627207L5.23765 2.80821V2.80971ZM6.38965 4.64571H18.3896C18.7875 4.64571 19.169 4.80374 19.4503 5.08505C19.7316 5.36635 19.8896 5.74788 19.8896 6.14571V21.1457C19.8896 21.5435 19.7316 21.9251 19.4503 22.2064C19.169 22.4877 18.7875 22.6457 18.3896 22.6457H6.38965C5.99182 22.6457 5.61029 22.4877 5.32899 22.2064C5.04768 21.9251 4.88965 21.5435 4.88965 21.1457V6.14571C4.88965 5.74788 5.04768 5.36635 5.32899 5.08505C5.61029 4.80374 5.99182 4.64571 6.38965 4.64571Z" fill="#1B1C22"/>
</g>
<defs>
<clipPath id="clip0_608_657">
<rect width="24" height="24" fill="white" transform="translate(0.389648 0.145691)"/>
</clipPath>
</defs>
</svg>
