<svg width="31" height="31" viewBox="0 0 31 31" fill="none" xmlns="http://www.w3.org/2000/svg">
<g clip-path="url(#clip0_460_780)">
<path d="M2.97733 0.863525C2.22862 0.863525 1.51057 1.16095 0.981144 1.69037C0.451723 2.21979 0.154297 2.93784 0.154297 3.68656L0.154297 16.8607C0.154297 17.6094 0.451723 18.3275 0.981144 18.8569C1.51057 19.3863 2.22862 19.6838 2.97733 19.6838H11.4464V21.5658H2.03632C1.53718 21.5658 1.05848 21.7641 0.705529 22.117C0.352581 22.47 0.154297 22.9487 0.154297 23.4478L0.154297 29.0939C0.154297 29.593 0.352581 30.0717 0.705529 30.4247C1.05848 30.7776 1.53718 30.9759 2.03632 30.9759H28.3846C28.8838 30.9759 29.3625 30.7776 29.7154 30.4247C30.0684 30.0717 30.2667 29.593 30.2667 29.0939V23.4478C30.2667 22.9487 30.0684 22.47 29.7154 22.117C29.3625 21.7641 28.8838 21.5658 28.3846 21.5658H18.9745V19.6838H27.4436C28.1923 19.6838 28.9104 19.3863 29.4398 18.8569C29.9692 18.3275 30.2667 17.6094 30.2667 16.8607V3.68656C30.2667 2.93784 29.9692 2.21979 29.4398 1.69037C28.9104 1.16095 28.1923 0.863525 27.4436 0.863525L2.97733 0.863525ZM2.97733 2.74555H27.4436C27.6932 2.74555 27.9325 2.84469 28.109 3.02116C28.2855 3.19764 28.3846 3.43699 28.3846 3.68656V16.8607C28.3846 17.1103 28.2855 17.3496 28.109 17.5261C27.9325 17.7026 27.6932 17.8017 27.4436 17.8017H2.97733C2.72776 17.8017 2.48841 17.7026 2.31194 17.5261C2.13546 17.3496 2.03632 17.1103 2.03632 16.8607V3.68656C2.03632 3.43699 2.13546 3.19764 2.31194 3.02116C2.48841 2.84469 2.72776 2.74555 2.97733 2.74555ZM22.7386 24.3888C22.7386 24.1392 22.8377 23.8999 23.0142 23.7234C23.1907 23.5469 23.43 23.4478 23.6796 23.4478C23.9292 23.4478 24.1685 23.5469 24.345 23.7234C24.5215 23.8999 24.6206 24.1392 24.6206 24.3888C24.6206 24.6384 24.5215 24.8777 24.345 25.0542C24.1685 25.2307 23.9292 25.3298 23.6796 25.3298C23.43 25.3298 23.1907 25.2307 23.0142 25.0542C22.8377 24.8777 22.7386 24.6384 22.7386 24.3888ZM26.5026 24.3888C26.5026 24.1392 26.6018 23.8999 26.7782 23.7234C26.9547 23.5469 27.1941 23.4478 27.4436 23.4478C27.6932 23.4478 27.9325 23.5469 28.109 23.7234C28.2855 23.8999 28.3846 24.1392 28.3846 24.3888C28.3846 24.6384 28.2855 24.8777 28.109 25.0542C27.9325 25.2307 27.6932 25.3298 27.4436 25.3298C27.1941 25.3298 26.9547 25.2307 26.7782 25.0542C26.6018 24.8777 26.5026 24.6384 26.5026 24.3888ZM2.97733 23.4478H12.3874C12.637 23.4478 12.8764 23.5469 13.0528 23.7234C13.2293 23.8999 13.3285 24.1392 13.3285 24.3888C13.3285 24.6384 13.2293 24.8777 13.0528 25.0542C12.8764 25.2307 12.637 25.3298 12.3874 25.3298H2.97733C2.72776 25.3298 2.48841 25.2307 2.31194 25.0542C2.13546 24.8777 2.03632 24.6384 2.03632 24.3888C2.03632 24.1392 2.13546 23.8999 2.31194 23.7234C2.48841 23.5469 2.72776 23.4478 2.97733 23.4478ZM2.03632 27.6823C2.03632 27.5576 2.08589 27.4379 2.17413 27.3496C2.26236 27.2614 2.38204 27.2118 2.50683 27.2118H12.8579C12.9827 27.2118 13.1024 27.2614 13.1906 27.3496C13.2789 27.4379 13.3285 27.5576 13.3285 27.6823C13.3285 27.8071 13.2789 27.9268 13.1906 28.015C13.1024 28.1033 12.9827 28.1529 12.8579 28.1529H2.50683C2.38204 28.1529 2.26236 28.1033 2.17413 28.015C2.08589 27.9268 2.03632 27.8071 2.03632 27.6823Z" fill="white"/>
</g>
<defs>
<clipPath id="clip0_460_780">
<rect width="30.1124" height="30.1124" fill="white" transform="translate(0.154297 0.863525)"/>
</clipPath>
</defs>
</svg>
