<svg width="32" height="32" viewBox="0 0 32 32" fill="none" xmlns="http://www.w3.org/2000/svg">
<g clip-path="url(#clip0_460_793)">
<path d="M26.3488 2.39712L26.6363 2.10968C26.8526 1.89347 27.1094 1.72198 27.392 1.60501C27.6746 1.48805 27.9775 1.42789 28.2834 1.42798C28.5893 1.42807 28.8921 1.4884 29.1747 1.60553C29.4572 1.72267 29.7139 1.8943 29.9301 2.11065C30.1464 2.32699 30.3179 2.5838 30.4348 2.86642C30.5518 3.14904 30.6119 3.45193 30.6119 3.75779C30.6118 4.06366 30.5514 4.36651 30.4343 4.64906C30.3172 4.93161 30.1455 5.18832 29.9292 5.40454L29.6418 5.69004C30.1334 6.24149 30.3956 6.96013 30.3744 7.69865C30.3533 8.43717 30.0504 9.13962 29.5279 9.66201L9.67391 29.518C9.5498 29.6414 9.39442 29.7288 9.22444 29.7707L1.50815 31.6997C1.34667 31.7399 1.17753 31.7377 1.01718 31.6932C0.856833 31.6487 0.710722 31.5635 0.593053 31.4458C0.475384 31.3281 0.39016 31.182 0.345665 31.0217C0.30117 30.8613 0.298918 30.6922 0.339128 30.5307L2.2682 22.8144C2.31041 22.6451 2.39775 22.4905 2.52091 22.3669L21.121 3.76676C20.935 3.63583 20.7087 3.57487 20.4821 3.59463C20.2555 3.6144 20.0431 3.71363 19.8826 3.87479L13.5321 10.2272C13.4424 10.3169 13.3359 10.388 13.2187 10.4366C13.1016 10.4851 12.976 10.5101 12.8492 10.5101C12.7223 10.5101 12.5968 10.4851 12.4796 10.4366C12.3624 10.388 12.256 10.3169 12.1663 10.2272C12.0766 10.1375 12.0055 10.0311 11.9569 9.91391C11.9084 9.79674 11.8834 9.67116 11.8834 9.54433C11.8834 9.41751 11.9084 9.29192 11.9569 9.17475C12.0055 9.05758 12.0766 8.95112 12.1663 8.86144L18.5206 2.51093C19.0434 1.98818 19.7464 1.68533 20.4853 1.66452C21.2243 1.64372 21.9432 1.90654 22.4945 2.39904C23.0246 1.92534 23.7104 1.66332 24.4213 1.66296C25.1322 1.66261 25.8183 1.92394 26.3488 2.39712ZM25.1065 3.87479C24.9256 3.69396 24.6803 3.59238 24.4246 3.59238C24.1688 3.59238 23.9235 3.69396 23.7426 3.87479L4.07188 23.5417L2.59807 29.4389L8.49525 27.965L28.166 8.29815C28.2558 8.20855 28.3271 8.10212 28.3757 7.98493C28.4243 7.86775 28.4494 7.74213 28.4494 7.61526C28.4494 7.48839 28.4243 7.36276 28.3757 7.24558C28.3271 7.1284 28.2558 7.02196 28.166 6.93237L25.1065 3.87479Z" fill="white"/>
</g>
<defs>
<clipPath id="clip0_460_793">
<rect width="30.8652" height="30.8652" fill="white" transform="translate(0.310547 0.863525)"/>
</clipPath>
</defs>
</svg>
