<svg width="17" height="17" viewBox="0 0 17 17" fill="none" xmlns="http://www.w3.org/2000/svg">
<path d="M14.7387 0.880381L14.8905 0.722745C15.0047 0.604165 15.1404 0.510116 15.2896 0.445968C15.4388 0.381819 15.5987 0.348828 15.7603 0.348877C15.9218 0.348926 16.0817 0.382015 16.2309 0.446254C16.3801 0.510493 16.5156 0.604624 16.6298 0.723274C16.744 0.841923 16.8345 0.982766 16.8963 1.13776C16.958 1.29276 16.9898 1.45887 16.9897 1.62662C16.9897 1.79436 16.9578 1.96046 16.896 2.11542C16.8341 2.27038 16.7435 2.41116 16.6293 2.52974L16.4775 2.68632C16.7371 2.98875 16.8755 3.38288 16.8644 3.7879C16.8532 4.19293 16.6933 4.57817 16.4174 4.86466L5.93389 15.7543C5.86835 15.822 5.7863 15.8699 5.69655 15.8929L1.62211 16.9508C1.53685 16.9729 1.44754 16.9716 1.36287 16.9472C1.2782 16.9228 1.20105 16.8761 1.13892 16.8116C1.07679 16.747 1.03178 16.6669 1.00829 16.579C0.984795 16.491 0.983606 16.3983 1.00484 16.3097L2.02345 12.0778C2.04573 11.985 2.09185 11.9002 2.15688 11.8324L11.9783 1.63153C11.8801 1.55973 11.7606 1.52629 11.6409 1.53714C11.5213 1.54798 11.4091 1.6024 11.3244 1.69078L7.9711 5.17465C7.92375 5.22383 7.86753 5.26284 7.80566 5.28946C7.74379 5.31608 7.67748 5.32978 7.61052 5.32978C7.54355 5.32978 7.47724 5.31608 7.41537 5.28946C7.3535 5.26284 7.29728 5.22383 7.24993 5.17465C7.20257 5.12547 7.16501 5.06708 7.13938 5.00282C7.11376 4.93856 7.10057 4.86968 7.10057 4.80013C7.10057 4.73057 7.11376 4.6617 7.13938 4.59744C7.16501 4.53318 7.20257 4.47479 7.24993 4.42561L10.6052 0.942801C10.8812 0.656109 11.2524 0.490015 11.6426 0.478604C12.0328 0.467194 12.4124 0.611332 12.7036 0.881439C12.9834 0.621644 13.3456 0.477945 13.721 0.47775C14.0963 0.477555 14.4586 0.620878 14.7387 0.880381Z" fill="#FF3639"/>
</svg>
