<svg width="16" height="15" viewBox="0 0 16 15" fill="none" xmlns="http://www.w3.org/2000/svg">
<g clip-path="url(#clip0_608_1190)">
<path d="M4.43078 1.89246H4.65518C4.77959 1.89246 4.88039 1.80064 4.88039 1.68738C4.88039 1.57412 4.77959 1.4823 4.65518 1.4823H4.43078C4.30637 1.4823 4.20557 1.57412 4.20557 1.68738C4.20557 1.80064 4.3064 1.89246 4.43078 1.89246Z" fill="#FF3639"/>
<path d="M13.4998 1.48236H12.7935V1.24597C12.7935 1.13271 12.6927 1.04089 12.5683 1.04089C12.4439 1.04089 12.3431 1.13271 12.3431 1.24597V1.48236H7.94551V1.24597C7.94551 1.13271 7.84471 1.04089 7.7203 1.04089C7.59589 1.04089 7.49509 1.13271 7.49509 1.24597V1.48236H5.55105C5.42665 1.48236 5.32584 1.57418 5.32584 1.68744C5.32584 1.80069 5.42665 1.89251 5.55105 1.89251H7.49509V2.1289C7.49509 2.24216 7.59589 2.33398 7.7203 2.33398C7.84471 2.33398 7.94551 2.24216 7.94551 2.1289V1.89251H12.3431V2.1289C12.3431 2.24216 12.4439 2.33398 12.5683 2.33398C12.6927 2.33398 12.7935 2.24216 12.7935 2.1289V1.89251H13.4998C13.9313 1.89251 14.2824 2.21216 14.2824 2.60509V5.01408H1.15822V2.60509C1.15822 2.21216 1.50925 1.89251 1.94079 1.89251H2.64705V2.1289C2.64705 2.24216 2.74786 2.33398 2.87226 2.33398C2.99667 2.33398 3.09747 2.24216 3.09747 2.1289V1.89251H3.54165C3.66606 1.89251 3.76687 1.80069 3.76687 1.68744C3.76687 1.57418 3.66606 1.48236 3.54165 1.48236H3.09744V1.24597C3.09744 1.13271 2.99664 1.04089 2.87223 1.04089C2.74783 1.04089 2.64702 1.13271 2.64702 1.24597V1.48236H1.94076C1.26088 1.48236 0.707764 1.986 0.707764 2.60509V12.2479C0.707764 12.867 1.26088 13.3706 1.94076 13.3706H13.4998C14.1797 13.3706 14.7328 12.867 14.7328 12.2479V2.60509C14.7328 1.98603 14.1797 1.48236 13.4998 1.48236ZM5.92332 12.9604C5.55448 12.2242 5.52415 11.4902 5.52172 10.7218H7.49512V12.9604H5.92332ZM1.15822 8.07305H4.10144V9.42875H1.15822V8.07305ZM7.49509 7.66289H4.55183V5.42426H7.49509V7.66289ZM7.94551 5.42423H10.8887V7.66287H7.94551V5.42423ZM7.49509 8.07305V10.3117H5.52145V9.63383C5.52145 9.52057 5.42064 9.42875 5.29624 9.42875H4.55183V8.07305H7.49509ZM5.07105 9.83891V10.5168C5.07105 11.3032 5.07108 12.1133 5.41971 12.9289C4.66621 12.8044 3.70939 12.3185 2.77812 11.5764C1.93742 10.9066 1.37724 10.2324 1.21032 9.83891H5.07105ZM7.94551 10.7218H10.8887V12.9604H7.94551V10.7218ZM7.94551 10.3117V8.07302H10.8887V10.3117H7.94551ZM11.3392 8.07305H14.2824V10.3117H11.3392V8.07305ZM14.2824 7.66289H11.3392V5.42426H14.2824V7.66289ZM4.10144 5.42423V7.66287H1.15822V5.42423H4.10144ZM1.94079 12.9604C1.50928 12.9604 1.15822 12.6408 1.15822 12.2479V10.5808C1.49946 11.0227 1.99159 11.4947 2.4815 11.8851C2.81272 12.149 3.45223 12.6195 4.1872 12.9604H1.94079ZM13.4998 12.9604H11.3392V10.7218H14.2824V12.2479C14.2824 12.6408 13.9313 12.9604 13.4998 12.9604Z" fill="#FF3639"/>
<path d="M2.16211 3.45325C2.16211 3.5665 2.26291 3.65833 2.38732 3.65833H13.0531C13.1775 3.65833 13.2783 3.5665 13.2783 3.45325C13.2783 3.33999 13.1775 3.24817 13.0531 3.24817H2.38732C2.26291 3.24817 2.16211 3.33999 2.16211 3.45325Z" fill="#FF3639"/>
</g>
<defs>
<clipPath id="clip0_608_1190">
<rect width="15.3745" height="14" fill="white" transform="translate(0.0322266 0.229492)"/>
</clipPath>
</defs>
</svg>
