<svg width="20" height="20" viewBox="0 0 20 20" fill="none" xmlns="http://www.w3.org/2000/svg">
<path d="M17.5122 3.10575C17.5119 3.10204 17.5112 3.09846 17.5107 3.09482C17.5099 3.08965 17.5093 3.08447 17.5083 3.07933C17.5074 3.07496 17.5062 3.07073 17.5052 3.06643C17.5041 3.06206 17.5031 3.05769 17.5018 3.05339C17.5005 3.04913 17.4989 3.04501 17.4975 3.04085C17.4959 3.03663 17.4945 3.03233 17.4928 3.02817C17.4912 3.02427 17.4893 3.02052 17.4875 3.0167C17.4855 3.01243 17.4836 3.00813 17.4813 3.00394C17.4794 3.00033 17.4772 2.99691 17.4751 2.99337C17.4726 2.98922 17.4703 2.98503 17.4676 2.98099C17.4651 2.9772 17.4622 2.97366 17.4595 2.97002C17.4569 2.96648 17.4545 2.96291 17.4516 2.95949C17.4469 2.95366 17.4417 2.94812 17.4365 2.94272C17.4355 2.94167 17.4346 2.94054 17.4336 2.93952C17.4326 2.93853 17.4315 2.9377 17.4305 2.93671C17.425 2.93143 17.4195 2.92625 17.4136 2.92144C17.4104 2.91878 17.4069 2.91645 17.4036 2.91394C17.3998 2.91109 17.396 2.90814 17.3921 2.90548C17.3883 2.90293 17.3843 2.90071 17.3804 2.89838C17.3766 2.89612 17.3729 2.89379 17.3691 2.89171C17.3651 2.8896 17.3611 2.88785 17.3571 2.88595C17.353 2.88402 17.349 2.88198 17.3448 2.88027C17.3409 2.87866 17.337 2.87739 17.333 2.87597C17.3286 2.87436 17.3241 2.87265 17.3196 2.87127C17.3157 2.8701 17.3116 2.86923 17.3077 2.86821C17.303 2.867 17.2984 2.86573 17.2936 2.86478C17.2891 2.86387 17.2845 2.86336 17.28 2.8627C17.2757 2.86208 17.2716 2.86128 17.2672 2.86085C17.259 2.86004 17.2506 2.85964 17.2423 2.85961C17.2416 2.85961 17.241 2.8595 17.2403 2.8595H5.32317C5.1722 2.8595 5.04987 2.98182 5.04987 3.13279C5.04987 3.28376 5.1722 3.40608 5.32317 3.40608H16.5805L4.25339 15.7332C4.14666 15.84 4.14666 16.013 4.25339 16.1197C4.30677 16.1731 4.37673 16.1998 4.44666 16.1998C4.51662 16.1998 4.58655 16.1731 4.63993 16.1197L16.967 3.79263V15.05C16.967 15.2009 17.0894 15.3233 17.2403 15.3233C17.3913 15.3233 17.5136 15.2009 17.5136 15.05V3.13301C17.5136 3.1239 17.5132 3.11483 17.5122 3.10575Z" fill="white"/>
<path d="M3.35448 16.632L3.12936 16.8571C3.02263 16.9639 3.02263 17.1369 3.12936 17.2437C3.18275 17.297 3.25271 17.3237 3.32264 17.3237C3.39256 17.3237 3.46253 17.297 3.51591 17.2437L3.74103 17.0185C3.84776 16.9118 3.84776 16.7388 3.74103 16.632C3.63426 16.5253 3.46125 16.5253 3.35448 16.632Z" fill="white"/>
</svg>
