<svg width="19" height="17" viewBox="0 0 19 17" fill="none" xmlns="http://www.w3.org/2000/svg">
<path id="Vector" d="M13.4603 10.9897C14.5496 9.58563 15.0374 7.84486 14.8263 6.11563C14.6152 4.38641 13.7206 2.79624 12.3215 1.66328C10.9225 0.530315 9.12214 -0.061896 7.28069 0.00512612C5.43923 0.0721483 3.69246 0.793461 2.38986 2.02475C1.08725 3.25605 0.324864 4.90652 0.255227 6.64597C0.18559 8.38541 0.813837 10.0856 2.01428 11.4063C3.21472 12.727 4.89882 13.5708 6.72966 13.769C8.5605 13.9672 10.4031 13.5051 11.8887 12.4752H11.8876C11.9206 12.5177 11.9573 12.5584 11.9978 12.5974L16.3289 16.6884C16.5398 16.8878 16.826 16.9999 17.1244 17C17.4228 17.0001 17.7091 16.8882 17.9202 16.689C18.1312 16.4897 18.2499 16.2194 18.25 15.9376C18.2501 15.6557 18.1317 15.3853 17.9207 15.1859L13.5896 11.0949C13.5494 11.0564 13.5062 11.0219 13.4603 10.9897ZM13.7505 6.90499C13.7505 7.67249 13.5905 8.43246 13.2795 9.14153C12.9686 9.8506 12.5128 10.4949 11.9383 11.0376C11.3638 11.5803 10.6817 12.0108 9.931 12.3045C9.18033 12.5982 8.37576 12.7493 7.56324 12.7493C6.75071 12.7493 5.94615 12.5982 5.19547 12.3045C4.4448 12.0108 3.76272 11.5803 3.18818 11.0376C2.61364 10.4949 2.15788 9.8506 1.84695 9.14153C1.53601 8.43246 1.37597 7.67249 1.37597 6.90499C1.37597 5.35498 2.02784 3.86844 3.18818 2.77241C4.34851 1.67638 5.92227 1.06064 7.56324 1.06064C9.2042 1.06064 10.778 1.67638 11.9383 2.77241C13.0986 3.86844 13.7505 5.35498 13.7505 6.90499Z" fill="white"/>
</svg>
