<svg width="13" height="13" viewBox="0 0 13 13" fill="none" xmlns="http://www.w3.org/2000/svg">
<path d="M11.5938 7.95312C12.0039 8.47266 12.25 9.12891 12.2227 9.8125C12.2227 11.5078 10.8555 12.875 9.16016 12.875C8.47656 12.875 7.82031 12.6562 7.30078 12.2461C6.91797 12.3281 6.50781 12.3828 6.09766 12.3828C3.00781 12.3828 0.492188 9.86719 0.492188 6.75C0.492188 6.36719 0.546875 5.95703 0.628906 5.57422C0.21875 5.05469 0 4.39844 0 3.6875C0 2.01953 1.36719 0.625 3.0625 0.625C3.74609 0.625 4.40234 0.871094 4.92188 1.28125C5.30469 1.19922 5.71484 1.14453 6.125 1.14453C9.21484 1.14453 11.7305 3.66016 11.7305 6.75C11.7305 7.16016 11.6758 7.57031 11.5938 7.95312ZM6.28906 10.4688C7.79297 10.4688 9.35156 9.70312 9.35156 8.08984C9.35156 6.69531 7.98438 6.23047 6.86328 5.98438C5.55078 5.65625 4.97656 5.60156 4.97656 5.08203C4.97656 4.64453 5.41406 4.45312 6.125 4.45312C7.38281 4.45312 7.41016 5.38281 8.17578 5.38281C8.69531 5.38281 8.99609 4.97266 8.99609 4.50781C8.99609 3.57812 7.46484 2.97656 5.96094 2.97656C4.59375 2.97656 2.98047 3.57812 2.98047 5.21875C2.98047 6.99609 4.51172 7.16016 6.20703 7.59766C6.91797 7.76172 7.35547 7.84375 7.35547 8.36328C7.35547 8.77344 6.89062 9.07422 6.20703 9.07422C4.73047 9.07422 4.64844 7.84375 3.80078 7.84375C3.22656 7.84375 2.98047 8.25391 2.98047 8.69141C2.98047 9.67578 4.48438 10.4688 6.28906 10.4688Z" fill="#111111"/>
</svg>
