<svg width="41" height="40" viewBox="0 0 41 40" fill="none" xmlns="http://www.w3.org/2000/svg">
<path d="M20.5245 19.9193C22.4712 19.9193 24.3381 19.146 25.7146 17.7695C27.0911 16.393 27.8644 14.526 27.8644 12.5794C27.8644 10.6327 27.0911 8.7658 25.7146 7.38931C24.3381 6.01281 22.4712 5.2395 20.5245 5.2395C18.5778 5.2395 16.7109 6.01281 15.3344 7.38931C13.9579 8.7658 13.1846 10.6327 13.1846 12.5794C13.1846 14.526 13.9579 16.393 15.3344 17.7695C16.7109 19.146 18.5778 19.9193 20.5245 19.9193ZM25.4178 12.5794C25.4178 13.8772 24.9022 15.1218 23.9846 16.0394C23.0669 16.9571 21.8223 17.4726 20.5245 17.4726C19.2267 17.4726 17.9821 16.9571 17.0644 16.0394C16.1468 15.1218 15.6312 13.8772 15.6312 12.5794C15.6312 11.2816 16.1468 10.037 17.0644 9.11933C17.9821 8.20167 19.2267 7.68613 20.5245 7.68613C21.8223 7.68613 23.0669 8.20167 23.9846 9.11933C24.9022 10.037 25.4178 11.2816 25.4178 12.5794ZM35.2043 32.1524C35.2043 34.5991 32.7576 34.5991 32.7576 34.5991H8.29136C8.29136 34.5991 5.84473 34.5991 5.84473 32.1524C5.84473 29.7058 8.29136 22.3659 20.5245 22.3659C32.7576 22.3659 35.2043 29.7058 35.2043 32.1524ZM32.7576 32.1426C32.7552 31.5408 32.3809 29.7303 30.7221 28.0714C29.1269 26.4762 26.1248 24.8125 20.5245 24.8125C14.9242 24.8125 11.9222 26.4762 10.327 28.0714C8.66814 29.7303 8.29625 31.5408 8.29136 32.1426H32.7576Z" fill="white"/>
</svg>
