<svg width="33" height="33" viewBox="0 0 33 33" fill="none" xmlns="http://www.w3.org/2000/svg">
<path id="Vector" d="M32.4522 0.614677C32.5932 0.75596 32.6897 0.935573 32.7295 1.1312C32.7693 1.32684 32.7508 1.52987 32.6763 1.71507L20.82 31.3585C20.7155 31.6195 20.5411 31.8467 20.3158 32.015C20.0905 32.1833 19.8232 32.2861 19.5433 32.3122C19.2633 32.3384 18.9816 32.2867 18.7291 32.163C18.4766 32.0393 18.2631 31.8484 18.1122 31.6112L11.6369 21.4325L1.45957 14.9565C1.22183 14.8057 1.03037 14.5921 0.906326 14.3393C0.782278 14.0865 0.730464 13.8044 0.756599 13.524C0.782735 13.2437 0.885804 12.976 1.05443 12.7505C1.22307 12.525 1.4507 12.3505 1.71222 12.2463L31.3519 0.39256C31.5371 0.318003 31.7401 0.299501 31.9357 0.339352C32.1313 0.379202 32.3109 0.47565 32.4522 0.616715V0.614677ZM13.6704 20.8375L19.296 29.6773L28.9395 5.56645L13.6704 20.8375ZM27.499 4.12575L3.39113 13.7705L12.2319 19.3947L27.499 4.12575Z" fill="#F25055"/>
</svg>
